<svg xmlns="http://www.w3.org/2000/svg" xmlns:xlink="http://www.w3.org/1999/xlink" width="500" zoomAndPan="magnify" viewBox="0 0 375 187.499995" height="250" preserveAspectRatio="xMidYMid meet" version="1.0"><defs><g/></defs><g fill="#322310" fill-opacity="1"><g transform="translate(16.684743, 153.23487)"><g><path d="M 1.25 0 L 1.25 -11.796875 L 5.390625 -11.796875 C 6.222656 -11.796875 6.910156 -11.664062 7.453125 -11.40625 C 8.003906 -11.144531 8.414062 -10.785156 8.6875 -10.328125 C 8.957031 -9.867188 9.09375 -9.359375 9.09375 -8.796875 C 9.09375 -8.035156 8.882812 -7.4375 8.46875 -7 C 8.0625 -6.5625 7.570312 -6.257812 7 -6.09375 C 7.4375 -6.007812 7.832031 -5.832031 8.1875 -5.5625 C 8.550781 -5.289062 8.835938 -4.953125 9.046875 -4.546875 C 9.253906 -4.140625 9.359375 -3.695312 9.359375 -3.21875 C 9.359375 -2.625 9.210938 -2.082031 8.921875 -1.59375 C 8.628906 -1.101562 8.195312 -0.710938 7.625 -0.421875 C 7.050781 -0.140625 6.351562 0 5.53125 0 Z M 2.65625 -6.640625 L 5.296875 -6.640625 C 6.046875 -6.640625 6.625 -6.816406 7.03125 -7.171875 C 7.4375 -7.523438 7.640625 -8.019531 7.640625 -8.65625 C 7.640625 -9.25 7.4375 -9.722656 7.03125 -10.078125 C 6.632812 -10.441406 6.039062 -10.625 5.25 -10.625 L 2.65625 -10.625 Z M 2.65625 -1.1875 L 5.375 -1.1875 C 6.1875 -1.1875 6.8125 -1.375 7.25 -1.75 C 7.6875 -2.125 7.90625 -2.648438 7.90625 -3.328125 C 7.90625 -3.984375 7.675781 -4.507812 7.21875 -4.90625 C 6.757812 -5.3125 6.132812 -5.515625 5.34375 -5.515625 L 2.65625 -5.515625 Z M 2.65625 -1.1875 "/></g></g></g><g fill="#322310" fill-opacity="1"><g transform="translate(29.771666, 153.23487)"><g><path d="M 6.609375 0.203125 C 5.453125 0.203125 4.4375 -0.0507812 3.5625 -0.5625 C 2.695312 -1.070312 2.019531 -1.785156 1.53125 -2.703125 C 1.039062 -3.628906 0.796875 -4.695312 0.796875 -5.90625 C 0.796875 -7.101562 1.039062 -8.160156 1.53125 -9.078125 C 2.019531 -9.992188 2.695312 -10.707031 3.5625 -11.21875 C 4.4375 -11.738281 5.453125 -12 6.609375 -12 C 7.773438 -12 8.789062 -11.738281 9.65625 -11.21875 C 10.53125 -10.707031 11.207031 -9.992188 11.6875 -9.078125 C 12.175781 -8.160156 12.421875 -7.101562 12.421875 -5.90625 C 12.421875 -4.695312 12.175781 -3.628906 11.6875 -2.703125 C 11.207031 -1.785156 10.53125 -1.070312 9.65625 -0.5625 C 8.789062 -0.0507812 7.773438 0.203125 6.609375 0.203125 Z M 6.609375 -1.046875 C 7.472656 -1.046875 8.234375 -1.238281 8.890625 -1.625 C 9.546875 -2.007812 10.054688 -2.566406 10.421875 -3.296875 C 10.785156 -4.023438 10.96875 -4.894531 10.96875 -5.90625 C 10.96875 -6.914062 10.785156 -7.78125 10.421875 -8.5 C 10.054688 -9.21875 9.546875 -9.769531 8.890625 -10.15625 C 8.234375 -10.539062 7.472656 -10.734375 6.609375 -10.734375 C 5.742188 -10.734375 4.984375 -10.539062 4.328125 -10.15625 C 3.671875 -9.769531 3.160156 -9.21875 2.796875 -8.5 C 2.429688 -7.78125 2.25 -6.914062 2.25 -5.90625 C 2.25 -4.894531 2.429688 -4.023438 2.796875 -3.296875 C 3.160156 -2.566406 3.671875 -2.007812 4.328125 -1.625 C 4.984375 -1.238281 5.742188 -1.046875 6.609375 -1.046875 Z M 6.609375 -1.046875 "/></g></g></g><g fill="#322310" fill-opacity="1"><g transform="translate(45.927503, 153.23487)"><g><path d="M 5.515625 0.203125 C 4.703125 0.203125 3.96875 0.0390625 3.3125 -0.28125 C 2.65625 -0.601562 2.128906 -1.097656 1.734375 -1.765625 C 1.335938 -2.441406 1.140625 -3.300781 1.140625 -4.34375 L 1.140625 -11.796875 L 2.5625 -11.796875 L 2.5625 -4.328125 C 2.5625 -3.179688 2.835938 -2.347656 3.390625 -1.828125 C 3.941406 -1.316406 4.660156 -1.0625 5.546875 -1.0625 C 6.429688 -1.0625 7.144531 -1.316406 7.6875 -1.828125 C 8.226562 -2.347656 8.5 -3.179688 8.5 -4.328125 L 8.5 -11.796875 L 9.90625 -11.796875 L 9.90625 -4.34375 C 9.90625 -3.300781 9.707031 -2.441406 9.3125 -1.765625 C 8.925781 -1.097656 8.398438 -0.601562 7.734375 -0.28125 C 7.078125 0.0390625 6.335938 0.203125 5.515625 0.203125 Z M 5.515625 0.203125 "/></g></g></g><g fill="#322310" fill-opacity="1"><g transform="translate(59.924981, 153.23487)"><g><path d="M 6.609375 0.203125 C 5.453125 0.203125 4.4375 -0.0507812 3.5625 -0.5625 C 2.695312 -1.070312 2.019531 -1.785156 1.53125 -2.703125 C 1.039062 -3.628906 0.796875 -4.695312 0.796875 -5.90625 C 0.796875 -7.101562 1.039062 -8.160156 1.53125 -9.078125 C 2.019531 -9.992188 2.695312 -10.707031 3.5625 -11.21875 C 4.4375 -11.738281 5.453125 -12 6.609375 -12 C 7.773438 -12 8.789062 -11.738281 9.65625 -11.21875 C 10.53125 -10.707031 11.207031 -9.992188 11.6875 -9.078125 C 12.175781 -8.160156 12.421875 -7.101562 12.421875 -5.90625 C 12.421875 -4.695312 12.175781 -3.632812 11.6875 -2.71875 C 11.207031 -1.800781 10.550781 -1.09375 9.71875 -0.59375 L 12.6875 2.28125 L 10.859375 2.28125 L 8.46875 -0.046875 C 7.894531 0.117188 7.273438 0.203125 6.609375 0.203125 Z M 6.609375 -1.046875 C 7.472656 -1.046875 8.234375 -1.238281 8.890625 -1.625 C 9.546875 -2.007812 10.054688 -2.566406 10.421875 -3.296875 C 10.785156 -4.023438 10.96875 -4.894531 10.96875 -5.90625 C 10.96875 -6.914062 10.785156 -7.78125 10.421875 -8.5 C 10.054688 -9.21875 9.546875 -9.769531 8.890625 -10.15625 C 8.234375 -10.539062 7.472656 -10.734375 6.609375 -10.734375 C 5.742188 -10.734375 4.984375 -10.539062 4.328125 -10.15625 C 3.671875 -9.769531 3.160156 -9.21875 2.796875 -8.5 C 2.429688 -7.78125 2.25 -6.914062 2.25 -5.90625 C 2.25 -4.894531 2.429688 -4.023438 2.796875 -3.296875 C 3.160156 -2.566406 3.671875 -2.007812 4.328125 -1.625 C 4.984375 -1.238281 5.742188 -1.046875 6.609375 -1.046875 Z M 6.609375 -1.046875 "/></g></g></g><g fill="#322310" fill-opacity="1"><g transform="translate(76.16513, 153.23487)"><g><path d="M 1.25 0 L 1.25 -11.796875 L 8.546875 -11.796875 L 8.546875 -10.640625 L 2.65625 -10.640625 L 2.65625 -6.53125 L 8.046875 -6.53125 L 8.046875 -5.375 L 2.65625 -5.375 L 2.65625 -1.15625 L 8.546875 -1.15625 L 8.546875 0 Z M 1.25 0 "/></g></g></g><g fill="#322310" fill-opacity="1"><g transform="translate(88.611281, 153.23487)"><g><path d="M 4.015625 0 L 4.015625 -10.640625 L 0.484375 -10.640625 L 0.484375 -11.796875 L 8.953125 -11.796875 L 8.953125 -10.640625 L 5.421875 -10.640625 L 5.421875 0 Z M 4.015625 0 "/></g></g></g><g fill="#322310" fill-opacity="1"><g transform="translate(100.989983, 153.23487)"><g><path d="M 0.03125 2 L 1.015625 -1.71875 L 2.484375 -1.71875 L 1.015625 2 Z M 0.03125 2 "/></g></g></g><g fill="#322310" fill-opacity="1"><g transform="translate(106.927335, 153.23487)"><g><path d="M 6.328125 0.203125 C 5.222656 0.203125 4.253906 -0.0507812 3.421875 -0.5625 C 2.585938 -1.070312 1.941406 -1.785156 1.484375 -2.703125 C 1.023438 -3.617188 0.796875 -4.679688 0.796875 -5.890625 C 0.796875 -7.085938 1.023438 -8.144531 1.484375 -9.0625 C 1.953125 -9.988281 2.613281 -10.707031 3.46875 -11.21875 C 4.332031 -11.738281 5.351562 -12 6.53125 -12 C 7.851562 -12 8.953125 -11.675781 9.828125 -11.03125 C 10.710938 -10.394531 11.285156 -9.515625 11.546875 -8.390625 L 9.90625 -8.390625 C 9.75 -9.097656 9.375 -9.660156 8.78125 -10.078125 C 8.195312 -10.492188 7.445312 -10.703125 6.53125 -10.703125 C 5.65625 -10.703125 4.894531 -10.507812 4.25 -10.125 C 3.613281 -9.738281 3.117188 -9.1875 2.765625 -8.46875 C 2.421875 -7.75 2.25 -6.890625 2.25 -5.890625 C 2.25 -4.890625 2.421875 -4.023438 2.765625 -3.296875 C 3.109375 -2.578125 3.585938 -2.023438 4.203125 -1.640625 C 4.828125 -1.253906 5.550781 -1.0625 6.375 -1.0625 C 7.632812 -1.0625 8.582031 -1.425781 9.21875 -2.15625 C 9.863281 -2.894531 10.226562 -3.90625 10.3125 -5.1875 L 6.90625 -5.1875 L 6.90625 -6.3125 L 11.765625 -6.3125 L 11.765625 0 L 10.46875 0 L 10.359375 -1.9375 C 9.929688 -1.25 9.40625 -0.71875 8.78125 -0.34375 C 8.164062 0.0195312 7.347656 0.203125 6.328125 0.203125 Z M 6.328125 0.203125 "/></g></g></g><g fill="#322310" fill-opacity="1"><g transform="translate(122.627886, 153.23487)"><g><path d="M 1.25 0 L 1.25 -11.796875 L 2.65625 -11.796875 L 2.65625 0 Z M 1.25 0 "/></g></g></g><g fill="#322310" fill-opacity="1"><g transform="translate(129.475793, 153.23487)"><g><path d="M 1.25 0 L 1.25 -11.796875 L 8.421875 -11.796875 L 8.421875 -10.640625 L 2.65625 -10.640625 L 2.65625 -6.484375 L 7.5625 -6.484375 L 7.5625 -5.34375 L 2.65625 -5.34375 L 2.65625 0 Z M 1.25 0 "/></g></g></g><g fill="#322310" fill-opacity="1"><g transform="translate(141.416088, 153.23487)"><g><path d="M 4.015625 0 L 4.015625 -10.640625 L 0.484375 -10.640625 L 0.484375 -11.796875 L 8.953125 -11.796875 L 8.953125 -10.640625 L 5.421875 -10.640625 L 5.421875 0 Z M 4.015625 0 "/></g></g></g><g fill="#322310" fill-opacity="1"><g transform="translate(153.794797, 153.23487)"><g/></g></g><g fill="#322310" fill-opacity="1"><g transform="translate(161.199172, 153.23487)"><g><path d="M 4.734375 0.203125 C 3.929688 0.203125 3.222656 0.0546875 2.609375 -0.234375 C 1.992188 -0.535156 1.515625 -0.953125 1.171875 -1.484375 C 0.828125 -2.023438 0.65625 -2.660156 0.65625 -3.390625 C 0.65625 -4.179688 0.890625 -4.890625 1.359375 -5.515625 C 1.828125 -6.140625 2.503906 -6.632812 3.390625 -7 C 3.003906 -7.414062 2.726562 -7.8125 2.5625 -8.1875 C 2.394531 -8.5625 2.3125 -8.96875 2.3125 -9.40625 C 2.3125 -10.15625 2.578125 -10.773438 3.109375 -11.265625 C 3.640625 -11.753906 4.375 -12 5.3125 -12 C 5.914062 -12 6.441406 -11.882812 6.890625 -11.65625 C 7.335938 -11.425781 7.6875 -11.109375 7.9375 -10.703125 C 8.1875 -10.296875 8.300781 -9.835938 8.28125 -9.328125 L 6.875 -9.328125 C 6.882812 -9.828125 6.726562 -10.207031 6.40625 -10.46875 C 6.09375 -10.726562 5.726562 -10.859375 5.3125 -10.859375 C 4.800781 -10.859375 4.40625 -10.722656 4.125 -10.453125 C 3.84375 -10.179688 3.703125 -9.835938 3.703125 -9.421875 C 3.703125 -9.066406 3.800781 -8.71875 4 -8.375 C 4.195312 -8.039062 4.492188 -7.664062 4.890625 -7.25 L 8.609375 -3.484375 C 8.941406 -3.960938 9.296875 -4.53125 9.671875 -5.1875 L 10.203125 -6.109375 L 11.703125 -6.109375 L 10.953125 -4.78125 C 10.460938 -3.894531 9.992188 -3.15625 9.546875 -2.5625 L 12.09375 0 L 10.296875 0 L 8.734375 -1.578125 C 8.140625 -0.941406 7.519531 -0.484375 6.875 -0.203125 C 6.238281 0.0664062 5.523438 0.203125 4.734375 0.203125 Z M 2.078125 -3.4375 C 2.078125 -2.738281 2.320312 -2.160156 2.8125 -1.703125 C 3.3125 -1.242188 3.957031 -1.015625 4.75 -1.015625 C 5.34375 -1.015625 5.882812 -1.128906 6.375 -1.359375 C 6.863281 -1.585938 7.347656 -1.96875 7.828125 -2.5 L 4.25 -6.125 C 3.507812 -5.832031 2.960938 -5.457031 2.609375 -5 C 2.253906 -4.550781 2.078125 -4.03125 2.078125 -3.4375 Z M 2.078125 -3.4375 "/></g></g></g><g fill="#322310" fill-opacity="1"><g transform="translate(176.478171, 153.23487)"><g/></g></g><g fill="#322310" fill-opacity="1"><g transform="translate(183.882545, 153.23487)"><g><path d="M 1.25 0 L 1.25 -11.796875 L 2.65625 -11.796875 L 2.65625 -6.59375 L 8.78125 -6.59375 L 8.78125 -11.796875 L 10.203125 -11.796875 L 10.203125 0 L 8.78125 0 L 8.78125 -5.421875 L 2.65625 -5.421875 L 2.65625 0 Z M 1.25 0 "/></g></g></g><g fill="#322310" fill-opacity="1"><g transform="translate(198.267835, 153.23487)"><g><path d="M 0.5 0 L 4.859375 -11.796875 L 6.359375 -11.796875 L 10.6875 0 L 9.1875 0 L 8.109375 -3.03125 L 3.078125 -3.03125 L 1.984375 0 Z M 3.5 -4.1875 L 7.6875 -4.1875 L 5.59375 -10.015625 Z M 3.5 -4.1875 "/></g></g></g><g fill="#322310" fill-opacity="1"><g transform="translate(212.400221, 153.23487)"><g><path d="M 1.25 0 L 1.25 -11.796875 L 2.65625 -11.796875 L 8.953125 -2.34375 L 8.953125 -11.796875 L 10.375 -11.796875 L 10.375 0 L 8.953125 0 L 2.65625 -9.453125 L 2.65625 0 Z M 1.25 0 "/></g></g></g><g fill="#322310" fill-opacity="1"><g transform="translate(226.954136, 153.23487)"><g><path d="M 4.015625 0 L 4.015625 -10.640625 L 0.484375 -10.640625 L 0.484375 -11.796875 L 8.953125 -11.796875 L 8.953125 -10.640625 L 5.421875 -10.640625 L 5.421875 0 Z M 4.015625 0 "/></g></g></g><g fill="#322310" fill-opacity="1"><g transform="translate(239.33283, 153.23487)"><g><path d="M 0.5 0 L 4.859375 -11.796875 L 6.359375 -11.796875 L 10.6875 0 L 9.1875 0 L 8.109375 -3.03125 L 3.078125 -3.03125 L 1.984375 0 Z M 3.5 -4.1875 L 7.6875 -4.1875 L 5.59375 -10.015625 Z M 3.5 -4.1875 "/></g></g></g><g fill="#322310" fill-opacity="1"><g transform="translate(253.465215, 153.23487)"><g><path d="M 1.25 0 L 1.25 -11.796875 L 5.0625 -11.796875 C 5.976562 -11.796875 6.726562 -11.644531 7.3125 -11.34375 C 7.894531 -11.039062 8.328125 -10.625 8.609375 -10.09375 C 8.890625 -9.570312 9.03125 -8.988281 9.03125 -8.34375 C 9.03125 -7.601562 8.832031 -6.9375 8.4375 -6.34375 C 8.039062 -5.75 7.421875 -5.328125 6.578125 -5.078125 L 9.15625 0 L 7.484375 0 L 5.09375 -4.875 L 2.65625 -4.875 L 2.65625 0 Z M 2.65625 -5.984375 L 4.953125 -5.984375 C 5.867188 -5.984375 6.53125 -6.203125 6.9375 -6.640625 C 7.351562 -7.078125 7.5625 -7.640625 7.5625 -8.328125 C 7.5625 -9.023438 7.359375 -9.578125 6.953125 -9.984375 C 6.546875 -10.398438 5.875 -10.609375 4.9375 -10.609375 L 2.65625 -10.609375 Z M 2.65625 -5.984375 "/></g></g></g><g fill="#322310" fill-opacity="1"><g transform="translate(266.400369, 153.23487)"><g><path d="M 0.5 0 L 4.859375 -11.796875 L 6.359375 -11.796875 L 10.6875 0 L 9.1875 0 L 8.109375 -3.03125 L 3.078125 -3.03125 L 1.984375 0 Z M 3.5 -4.1875 L 7.6875 -4.1875 L 5.59375 -10.015625 Z M 3.5 -4.1875 "/></g></g></g><g fill="#322310" fill-opacity="1"><g transform="translate(280.532755, 153.23487)"><g><path d="M 1.25 0 L 1.25 -11.796875 L 2.65625 -11.796875 L 8.953125 -2.34375 L 8.953125 -11.796875 L 10.375 -11.796875 L 10.375 0 L 8.953125 0 L 2.65625 -9.453125 L 2.65625 0 Z M 1.25 0 "/></g></g></g><g fill="#322310" fill-opacity="1"><g transform="translate(295.096798, 153.23487)"><g/></g></g><g fill="#000000" fill-opacity="1"><g transform="translate(15.585119, 103.313644)"><g><path d="M 16.03125 -20.515625 C 17.238281 -22.347656 18.457031 -24.210938 19.6875 -26.109375 C 20.925781 -28.003906 22.175781 -29.875 23.4375 -31.71875 L 21.203125 -28.609375 L 18.09375 -24.390625 C 20.96875 -28.691406 23.925781 -32.925781 26.96875 -37.09375 C 30.007812 -41.257812 33.253906 -45.269531 36.703125 -49.125 C 37.515625 -49.976562 38.519531 -50.992188 39.71875 -52.171875 C 40.925781 -53.347656 42.21875 -54.46875 43.59375 -55.53125 C 44.976562 -56.59375 46.375 -57.335938 47.78125 -57.765625 C 49.1875 -58.203125 50.492188 -58.132812 51.703125 -57.5625 C 52.910156 -56.988281 53.890625 -55.664062 54.640625 -53.59375 L 54.640625 -53.421875 C 54.753906 -53.191406 54.8125 -53.050781 54.8125 -53 C 55.4375 -50.925781 55.578125 -48.828125 55.234375 -46.703125 C 54.890625 -44.578125 54.242188 -42.460938 53.296875 -40.359375 C 52.347656 -38.265625 51.296875 -36.238281 50.140625 -34.28125 C 48.992188 -32.332031 47.960938 -30.46875 47.046875 -28.6875 C 47.335938 -29.09375 47.539062 -29.296875 47.65625 -29.296875 C 47.65625 -29.296875 47.523438 -29.007812 47.265625 -28.4375 C 47.003906 -27.863281 46.710938 -27.1875 46.390625 -26.40625 C 46.078125 -25.632812 45.773438 -24.929688 45.484375 -24.296875 C 45.203125 -23.671875 45.035156 -23.269531 44.984375 -23.09375 C 44.523438 -22.0625 44.050781 -21 43.5625 -19.90625 C 43.070312 -18.8125 42.566406 -17.71875 42.046875 -16.625 C 40.898438 -14.101562 39.75 -11.5625 38.59375 -9 C 37.445312 -6.445312 36.359375 -3.847656 35.328125 -1.203125 C 34.578125 0.742188 33.769531 2.835938 32.90625 5.078125 C 32.050781 7.316406 31.625 9.53125 31.625 11.71875 C 31.6875 12.976562 32.117188 13.867188 32.921875 14.390625 C 33.722656 14.910156 34.695312 15.195312 35.84375 15.25 C 37 15.3125 38.0625 15.3125 39.03125 15.25 C 39.664062 15.132812 40.285156 14.988281 40.890625 14.8125 C 41.492188 14.644531 42.082031 14.472656 42.65625 14.296875 C 43.0625 14.179688 43.59375 13.9375 44.25 13.5625 C 44.90625 13.195312 45.4375 13.039062 45.84375 13.09375 C 46.476562 13.15625 46.648438 13.488281 46.359375 14.09375 C 46.066406 14.695312 45.675781 15.3125 45.1875 15.9375 C 44.707031 16.570312 44.378906 16.972656 44.203125 17.140625 C 42.941406 18.410156 41.347656 19.460938 39.421875 20.296875 C 37.492188 21.128906 35.613281 21.257812 33.78125 20.6875 C 31.9375 20.050781 30.410156 18.828125 29.203125 17.015625 C 28.003906 15.203125 27.085938 13.4375 26.453125 11.71875 C 25.703125 9.59375 25.285156 7.410156 25.203125 5.171875 C 25.117188 2.929688 25.304688 0.71875 25.765625 -1.46875 C 26.222656 -3.414062 26.882812 -5.28125 27.75 -7.0625 C 28.613281 -8.84375 29.414062 -10.625 30.15625 -12.40625 C 30.15625 -12.46875 30.210938 -12.769531 30.328125 -13.3125 C 30.441406 -13.851562 30.613281 -14.242188 30.84375 -14.484375 C 30.789062 -14.359375 30.707031 -14.066406 30.59375 -13.609375 C 30.476562 -13.148438 30.421875 -12.921875 30.421875 -12.921875 L 31.28125 -15.078125 C 31.21875 -15.023438 31.160156 -15.023438 31.109375 -15.078125 C 31.046875 -15.648438 31.242188 -16.367188 31.703125 -17.234375 C 32.171875 -18.097656 32.519531 -18.785156 32.75 -19.296875 L 35.078125 -23.953125 C 35.816406 -25.453125 36.546875 -26.914062 37.265625 -28.34375 C 37.984375 -29.78125 38.628906 -31.25 39.203125 -32.75 C 39.835938 -34.238281 40.5 -35.710938 41.1875 -37.171875 C 41.875 -38.640625 42.59375 -40.09375 43.34375 -41.53125 C 43.457031 -41.707031 43.6875 -42.179688 44.03125 -42.953125 C 44.375 -43.734375 44.757812 -44.566406 45.1875 -45.453125 C 45.625 -46.347656 46.03125 -47.140625 46.40625 -47.828125 C 46.78125 -48.515625 47.023438 -48.859375 47.140625 -48.859375 C 47.140625 -48.859375 47.066406 -48.640625 46.921875 -48.203125 C 46.773438 -47.773438 46.734375 -47.535156 46.796875 -47.484375 C 47.078125 -48.222656 47.429688 -49.125 47.859375 -50.1875 C 48.296875 -51.257812 48.398438 -52.164062 48.171875 -52.90625 C 48.171875 -52.851562 48.15625 -52.582031 48.125 -52.09375 C 48.09375 -51.601562 48.019531 -51.359375 47.90625 -51.359375 C 47.851562 -51.410156 47.835938 -51.707031 47.859375 -52.25 C 47.890625 -52.800781 47.734375 -53.132812 47.390625 -53.25 C 47.160156 -53.3125 46.898438 -53.253906 46.609375 -53.078125 C 46.328125 -52.910156 46.128906 -52.769531 46.015625 -52.65625 C 44.921875 -52.082031 43.914062 -51.304688 43 -50.328125 C 42.082031 -49.347656 41.222656 -48.367188 40.421875 -47.390625 C 38.460938 -45.265625 36.5625 -43.050781 34.71875 -40.75 C 32.882812 -38.457031 31.132812 -36.132812 29.46875 -33.78125 C 28.601562 -32.570312 27.738281 -31.347656 26.875 -30.109375 C 26.019531 -28.878906 25.132812 -27.691406 24.21875 -26.546875 C 23.925781 -26.140625 23.59375 -25.789062 23.21875 -25.5 C 22.84375 -25.21875 22.515625 -24.929688 22.234375 -24.640625 C 21.828125 -24.242188 21.507812 -23.769531 21.28125 -23.21875 C 21.050781 -22.675781 20.796875 -22.175781 20.515625 -21.71875 C 18.960938 -19.132812 17.351562 -16.59375 15.6875 -14.09375 C 14.019531 -11.59375 12.4375 -9.019531 10.9375 -6.375 C 10.3125 -5.34375 9.753906 -4.304688 9.265625 -3.265625 C 8.773438 -2.234375 8.300781 -1.144531 7.84375 0 C 7.613281 0.632812 7.394531 1.394531 7.1875 2.28125 C 6.988281 3.175781 6.601562 3.851562 6.03125 4.3125 C 5.164062 5.164062 4.273438 5.445312 3.359375 5.15625 C 2.441406 4.875 1.664062 4.285156 1.03125 3.390625 C 0.40625 2.503906 0.0625 1.601562 0 0.6875 C -0.0625 -1.207031 0.25 -3.171875 0.9375 -5.203125 C 1.632812 -7.242188 2.300781 -9.15625 2.9375 -10.9375 C 3.738281 -13.175781 4.671875 -15.359375 5.734375 -17.484375 C 6.796875 -19.617188 7.695312 -21.804688 8.4375 -24.046875 C 9.53125 -27.429688 10.8125 -30.757812 12.28125 -34.03125 C 13.75 -37.3125 15.195312 -40.585938 16.625 -43.859375 C 18.0625 -47.128906 19.210938 -50.488281 20.078125 -53.9375 C 20.191406 -54.40625 20.347656 -55.023438 20.546875 -55.796875 C 20.753906 -56.566406 20.882812 -57.328125 20.9375 -58.078125 C 21 -58.828125 20.800781 -59.375 20.34375 -59.71875 C 19.820312 -60.113281 19.15625 -60.15625 18.34375 -59.84375 C 17.539062 -59.53125 16.910156 -59.226562 16.453125 -58.9375 C 14.734375 -57.90625 13.269531 -56.515625 12.0625 -54.765625 C 10.851562 -53.015625 9.789062 -51.304688 8.875 -49.640625 C 7.957031 -48.023438 7.179688 -46.328125 6.546875 -44.546875 C 6.378906 -44.148438 6.207031 -43.734375 6.03125 -43.296875 C 5.863281 -42.867188 5.75 -42.425781 5.6875 -41.96875 C 5.6875 -41.90625 5.742188 -41.726562 5.859375 -41.4375 C 5.972656 -41.15625 5.945312 -40.84375 5.78125 -40.5 C 5.257812 -39.582031 4.484375 -39.410156 3.453125 -39.984375 C 2.585938 -40.441406 2.050781 -41.257812 1.84375 -42.4375 C 1.644531 -43.613281 1.578125 -44.632812 1.640625 -45.5 C 1.640625 -46.644531 1.796875 -47.734375 2.109375 -48.765625 C 2.421875 -49.804688 2.867188 -50.816406 3.453125 -51.796875 C 3.617188 -52.078125 3.816406 -52.347656 4.046875 -52.609375 C 4.273438 -52.867188 4.476562 -53.171875 4.65625 -53.515625 C 4.820312 -53.910156 4.945312 -54.3125 5.03125 -54.71875 C 5.125 -55.125 5.3125 -55.523438 5.59375 -55.921875 C 8.238281 -59.773438 11.71875 -62.363281 16.03125 -63.6875 C 17.289062 -64.082031 18.550781 -64.28125 19.8125 -64.28125 C 21.082031 -64.28125 22.265625 -63.847656 23.359375 -62.984375 C 24.328125 -62.242188 24.953125 -61.351562 25.234375 -60.3125 C 25.523438 -59.28125 25.816406 -58.21875 26.109375 -57.125 C 26.742188 -55 26.769531 -52.898438 26.1875 -50.828125 C 25.613281 -48.765625 25.039062 -46.671875 24.46875 -44.546875 C 23.894531 -42.367188 23.160156 -40.21875 22.265625 -38.09375 C 21.378906 -35.96875 20.617188 -33.8125 19.984375 -31.625 C 19.585938 -30.019531 19.101562 -28.441406 18.53125 -26.890625 C 17.957031 -25.335938 17.351562 -23.785156 16.71875 -22.234375 L 17.140625 -22.921875 C 16.679688 -22.171875 16.3125 -21.367188 16.03125 -20.515625 Z M 44.640625 -39.46875 L 38.09375 -26.109375 C 39.0625 -27.953125 40.09375 -29.75 41.1875 -31.5 C 42.28125 -33.25 43.316406 -35.039062 44.296875 -36.875 C 45.503906 -39.125 46.59375 -41.46875 47.5625 -43.90625 C 48.539062 -46.34375 49.316406 -48.828125 49.890625 -51.359375 C 49.835938 -51.296875 49.8125 -51.25 49.8125 -51.21875 C 49.8125 -51.195312 49.835938 -51.300781 49.890625 -51.53125 L 49.890625 -51.703125 C 49.660156 -50.722656 49.316406 -49.660156 48.859375 -48.515625 C 48.398438 -47.367188 48.113281 -46.679688 48 -46.453125 Z M 9.828125 -24.390625 L 10.171875 -25.421875 C 9.421875 -23.460938 8.554688 -21.503906 7.578125 -19.546875 C 6.609375 -17.597656 5.691406 -15.648438 4.828125 -13.703125 C 3.679688 -10.941406 2.734375 -8.238281 1.984375 -5.59375 C 1.640625 -4.394531 1.378906 -3.132812 1.203125 -1.8125 C 1.148438 -1.519531 1.164062 -1.113281 1.25 -0.59375 C 1.332031 -0.0820312 1.347656 0.316406 1.296875 0.609375 C 1.460938 0.140625 1.546875 -0.363281 1.546875 -0.90625 C 1.546875 -1.445312 1.578125 -1.976562 1.640625 -2.5 C 1.753906 -3.070312 1.878906 -3.644531 2.015625 -4.21875 C 2.160156 -4.789062 2.320312 -5.367188 2.5 -5.953125 C 2.90625 -7.210938 3.320312 -8.457031 3.75 -9.6875 C 4.175781 -10.925781 4.675781 -12.148438 5.25 -13.359375 C 6.0625 -15.140625 6.882812 -16.945312 7.71875 -18.78125 C 8.550781 -20.625 9.253906 -22.460938 9.828125 -24.296875 Z M 10.765625 -26.71875 C 11.171875 -27.113281 11.226562 -27.367188 10.9375 -27.484375 C 10.59375 -27.085938 10.535156 -26.832031 10.765625 -26.71875 Z M 36.703125 -48.6875 C 36.191406 -48.164062 35.691406 -47.632812 35.203125 -47.09375 C 34.710938 -46.550781 34.238281 -45.960938 33.78125 -45.328125 C 34.238281 -45.898438 34.710938 -46.457031 35.203125 -47 C 35.691406 -47.550781 36.191406 -48.113281 36.703125 -48.6875 Z M 17.75 -23.78125 C 17.632812 -23.664062 17.519531 -23.492188 17.40625 -23.265625 Z M 31.96875 -43.078125 C 31.914062 -43.023438 31.890625 -42.96875 31.890625 -42.90625 L 32.234375 -43.4375 Z M 49.890625 -51.703125 C 49.890625 -51.765625 49.90625 -51.820312 49.9375 -51.875 C 49.96875 -51.9375 49.984375 -51.992188 49.984375 -52.046875 C 49.984375 -51.992188 49.96875 -51.953125 49.9375 -51.921875 C 49.90625 -51.890625 49.890625 -51.816406 49.890625 -51.703125 Z M 33.265625 -44.640625 L 33.78125 -45.328125 Z M 54.8125 -53 L 54.71875 -53.25 C 54.71875 -53.132812 54.75 -53.050781 54.8125 -53 Z M 10.765625 -26.71875 C 10.765625 -26.769531 10.78125 -26.796875 10.8125 -26.796875 C 10.84375 -26.796875 10.859375 -26.796875 10.859375 -26.796875 Z M 31.96875 -43.078125 C 31.96875 -43.023438 31.953125 -43 31.921875 -43 C 31.898438 -43 31.890625 -43 31.890625 -43 C 31.941406 -43 31.96875 -43.007812 31.96875 -43.03125 C 31.96875 -43.0625 31.96875 -43.078125 31.96875 -43.078125 Z M 17.40625 -23.265625 L 17.140625 -22.921875 Z M 17.40625 -23.265625 "/></g></g></g><g fill="#000000" fill-opacity="1"><g transform="translate(65.046985, 103.313644)"><g><path d="M 33 -21.28125 C 33.175781 -20.9375 33.21875 -20.648438 33.125 -20.421875 C 33.039062 -20.191406 32.882812 -19.929688 32.65625 -19.640625 L 29.984375 -16.109375 L 25.328125 -10.078125 C 24.753906 -9.335938 24.125 -8.59375 23.4375 -7.84375 C 22.75 -7.09375 22.085938 -6.316406 21.453125 -5.515625 C 20.828125 -4.648438 20.210938 -3.769531 19.609375 -2.875 C 19.003906 -1.988281 18.328125 -1.144531 17.578125 -0.34375 C 16.828125 0.457031 15.992188 1.257812 15.078125 2.0625 C 14.160156 2.875 13.1875 3.566406 12.15625 4.140625 C 10.769531 4.878906 9.300781 5.019531 7.75 4.5625 C 6.664062 4.28125 5.632812 3.804688 4.65625 3.140625 C 3.675781 2.484375 2.8125 1.722656 2.0625 0.859375 C 1.832031 0.578125 1.628906 0.316406 1.453125 0.078125 C 1.285156 -0.148438 1.175781 -0.4375 1.125 -0.78125 C 1.0625 -1.0625 1.015625 -1.34375 0.984375 -1.625 C 0.960938 -1.914062 0.953125 -2.207031 0.953125 -2.5 C 0.890625 -3.019531 0.929688 -3.492188 1.078125 -3.921875 C 1.222656 -4.347656 1.320312 -4.820312 1.375 -5.34375 C 1.488281 -5.914062 1.644531 -6.457031 1.84375 -6.96875 C 2.050781 -7.488281 2.179688 -8.035156 2.234375 -8.609375 C 2.347656 -9.242188 2.476562 -9.832031 2.625 -10.375 C 2.769531 -10.925781 2.875 -11.488281 2.9375 -12.0625 C 2.988281 -12.582031 3 -13.113281 2.96875 -13.65625 C 2.945312 -14.207031 2.992188 -14.738281 3.109375 -15.25 C 3.222656 -15.59375 3.378906 -15.9375 3.578125 -16.28125 C 3.773438 -16.625 3.929688 -17 4.046875 -17.40625 C 3.929688 -17.175781 3.785156 -16.929688 3.609375 -16.671875 C 3.441406 -16.410156 3.332031 -16.164062 3.28125 -15.9375 C 3.164062 -15.59375 3.046875 -15.25 2.921875 -14.90625 C 2.804688 -14.5625 2.691406 -14.242188 2.578125 -13.953125 C 2.460938 -13.609375 2.363281 -13.28125 2.28125 -12.96875 C 2.195312 -12.65625 2.097656 -12.328125 1.984375 -11.984375 C 1.804688 -11.578125 1.644531 -11.203125 1.5 -10.859375 C 1.363281 -10.515625 1.265625 -10.113281 1.203125 -9.65625 C 1.148438 -9.25 1.132812 -8.859375 1.15625 -8.484375 C 1.1875 -8.109375 1.175781 -7.722656 1.125 -7.328125 C 1.0625 -6.921875 0.988281 -6.5625 0.90625 -6.25 C 0.820312 -5.9375 0.78125 -5.578125 0.78125 -5.171875 C 0.78125 -5.054688 0.804688 -4.894531 0.859375 -4.6875 C 0.921875 -4.488281 0.953125 -4.332031 0.953125 -4.21875 C 0.953125 -4.050781 0.921875 -3.863281 0.859375 -3.65625 C 0.804688 -3.457031 0.78125 -3.242188 0.78125 -3.015625 C 0.78125 -2.609375 0.804688 -2.21875 0.859375 -1.84375 C 0.921875 -1.476562 0.976562 -1.066406 1.03125 -0.609375 C 0.34375 -1.804688 0 -3.023438 0 -4.265625 C 0 -5.503906 0.113281 -6.753906 0.34375 -8.015625 C 0.570312 -9.335938 0.785156 -10.613281 0.984375 -11.84375 C 1.191406 -13.082031 1.4375 -14.332031 1.71875 -15.59375 C 2.289062 -18.125 3.148438 -20.609375 4.296875 -23.046875 C 5.453125 -25.492188 6.832031 -27.722656 8.4375 -29.734375 C 9.757812 -31.515625 11.328125 -32.960938 13.140625 -34.078125 C 14.953125 -35.203125 17.003906 -35.535156 19.296875 -35.078125 C 20.160156 -34.898438 21.023438 -34.609375 21.890625 -34.203125 C 22.753906 -33.804688 23.472656 -33.234375 24.046875 -32.484375 C 24.671875 -31.679688 24.984375 -30.789062 24.984375 -29.8125 C 24.984375 -28.832031 24.84375 -27.859375 24.5625 -26.890625 C 23.988281 -25.222656 23.066406 -23.710938 21.796875 -22.359375 C 20.535156 -21.015625 19.242188 -19.765625 17.921875 -18.609375 C 17.347656 -18.148438 16.757812 -17.691406 16.15625 -17.234375 C 15.550781 -16.773438 14.929688 -16.34375 14.296875 -15.9375 C 13.898438 -15.707031 13.457031 -15.492188 12.96875 -15.296875 C 12.476562 -15.097656 12.003906 -14.910156 11.546875 -14.734375 L 10.078125 -14.21875 C 9.796875 -14.15625 9.597656 -14.109375 9.484375 -14.078125 C 9.367188 -14.054688 9.253906 -13.898438 9.140625 -13.609375 C 8.910156 -13.210938 8.820312 -12.796875 8.875 -12.359375 C 8.9375 -11.929688 8.910156 -11.488281 8.796875 -11.03125 C 8.734375 -10.457031 8.628906 -9.910156 8.484375 -9.390625 C 8.335938 -8.867188 8.207031 -8.320312 8.09375 -7.75 C 7.863281 -6.71875 7.648438 -5.582031 7.453125 -4.34375 C 7.253906 -3.113281 7.269531 -1.953125 7.5 -0.859375 C 7.726562 0.234375 8.285156 0.734375 9.171875 0.640625 C 10.066406 0.554688 11.046875 0.15625 12.109375 -0.5625 C 13.171875 -1.28125 14.160156 -2.039062 15.078125 -2.84375 C 15.992188 -3.644531 16.625 -4.191406 16.96875 -4.484375 C 17.4375 -4.878906 17.851562 -5.28125 18.21875 -5.6875 C 18.59375 -6.09375 18.984375 -6.492188 19.390625 -6.890625 C 19.617188 -7.179688 19.847656 -7.441406 20.078125 -7.671875 C 20.304688 -7.898438 20.507812 -8.128906 20.6875 -8.359375 C 20.6875 -8.359375 20.710938 -8.441406 20.765625 -8.609375 C 20.828125 -8.785156 20.859375 -8.90625 20.859375 -8.96875 C 21.367188 -9.769531 21.953125 -10.570312 22.609375 -11.375 C 23.273438 -12.175781 23.925781 -12.953125 24.5625 -13.703125 C 25.363281 -14.617188 26.109375 -15.550781 26.796875 -16.5 C 27.484375 -17.445312 28.203125 -18.410156 28.953125 -19.390625 C 29.242188 -19.785156 29.601562 -20.285156 30.03125 -20.890625 C 30.457031 -21.492188 30.929688 -21.925781 31.453125 -22.1875 C 31.972656 -22.445312 32.460938 -22.175781 32.921875 -21.375 L 32.921875 -21.28125 C 32.972656 -21.226562 33 -21.226562 33 -21.28125 Z M 11.640625 -20.34375 C 11.398438 -19.9375 11.207031 -19.488281 11.0625 -19 C 10.925781 -18.507812 10.742188 -18.035156 10.515625 -17.578125 C 13.328125 -19.066406 15.738281 -20.992188 17.75 -23.359375 L 19.21875 -25.25 C 19.332031 -25.476562 19.488281 -25.675781 19.6875 -25.84375 C 19.882812 -26.019531 20.015625 -26.222656 20.078125 -26.453125 C 20.140625 -26.679688 20.140625 -26.894531 20.078125 -27.09375 C 20.015625 -27.300781 20.015625 -27.519531 20.078125 -27.75 L 20.421875 -29.5625 C 20.484375 -30.019531 20.394531 -30.632812 20.15625 -31.40625 C 19.925781 -32.1875 19.5 -32.519531 18.875 -32.40625 C 18.582031 -32.34375 18.289062 -32.148438 18 -31.828125 C 17.71875 -31.515625 17.492188 -31.242188 17.328125 -31.015625 L 15.765625 -28.953125 C 14.847656 -27.628906 14.101562 -26.25 13.53125 -24.8125 C 12.957031 -23.375 12.351562 -21.96875 11.71875 -20.59375 C 11.71875 -20.59375 11.71875 -20.578125 11.71875 -20.546875 C 11.71875 -20.523438 11.691406 -20.457031 11.640625 -20.34375 Z M 11.640625 -20.34375 "/></g></g></g><g fill="#000000" fill-opacity="1"><g transform="translate(91.846013, 103.313644)"><g><path d="M 43.78125 -21.109375 C 44.0625 -20.710938 44.101562 -20.382812 43.90625 -20.125 C 43.707031 -19.863281 43.492188 -19.585938 43.265625 -19.296875 L 42.734375 -19.046875 C 42.503906 -19.160156 42.363281 -19.128906 42.3125 -18.953125 C 42.539062 -18.722656 42.566406 -18.492188 42.390625 -18.265625 C 41.878906 -17.640625 41.21875 -17.164062 40.40625 -16.84375 C 39.601562 -16.53125 38.914062 -16.085938 38.34375 -15.515625 C 38.0625 -15.222656 37.847656 -14.960938 37.703125 -14.734375 C 37.554688 -14.503906 37.3125 -14.21875 36.96875 -13.875 C 36.851562 -13.757812 36.691406 -13.6875 36.484375 -13.65625 C 36.285156 -13.625 36.128906 -13.550781 36.015625 -13.4375 C 35.160156 -12.925781 34.441406 -12.328125 33.859375 -11.640625 C 33.117188 -10.773438 32.34375 -9.878906 31.53125 -8.953125 C 30.726562 -8.035156 29.984375 -7.0625 29.296875 -6.03125 C 28.660156 -5.113281 27.78125 -3.992188 26.65625 -2.671875 C 25.539062 -1.347656 24.304688 -0.15625 22.953125 0.90625 C 21.609375 1.96875 20.234375 2.582031 18.828125 2.75 C 17.421875 2.925781 16.144531 2.296875 15 0.859375 C 14.132812 -0.234375 13.875 -1.078125 14.21875 -1.671875 C 14.5625 -2.273438 15.132812 -2.804688 15.9375 -3.265625 C 16.738281 -3.734375 17.429688 -4.253906 18.015625 -4.828125 C 18.703125 -5.515625 19.347656 -6.242188 19.953125 -7.015625 C 20.554688 -7.796875 21.226562 -8.53125 21.96875 -9.21875 C 22.144531 -9.332031 22.535156 -9.773438 23.140625 -10.546875 C 23.742188 -11.328125 24.101562 -11.832031 24.21875 -12.0625 L 24.46875 -12.5 C 24.238281 -12.207031 24.179688 -12.257812 24.296875 -12.65625 C 24.410156 -13.0625 24.46875 -13.296875 24.46875 -13.359375 C 24.582031 -13.703125 24.753906 -14.0625 24.984375 -14.4375 C 25.210938 -14.8125 25.414062 -15.171875 25.59375 -15.515625 C 25.882812 -16.085938 26.171875 -16.675781 26.453125 -17.28125 C 26.742188 -17.882812 26.914062 -18.5 26.96875 -19.125 C 27.03125 -19.582031 27.046875 -20.15625 27.015625 -20.84375 C 26.984375 -21.539062 26.679688 -21.945312 26.109375 -22.0625 C 25.992188 -22.0625 25.648438 -21.972656 25.078125 -21.796875 C 24.503906 -21.628906 23.957031 -21.441406 23.4375 -21.234375 C 22.914062 -21.035156 22.65625 -20.9375 22.65625 -20.9375 C 22.601562 -21 22.660156 -21.085938 22.828125 -21.203125 C 23.003906 -21.316406 23.066406 -21.398438 23.015625 -21.453125 C 22.429688 -21.054688 21.910156 -20.628906 21.453125 -20.171875 C 21.515625 -20.222656 21.601562 -20.25 21.71875 -20.25 C 21.539062 -20.195312 21.117188 -19.765625 20.453125 -18.953125 C 19.796875 -18.148438 19.066406 -17.21875 18.265625 -16.15625 C 17.460938 -15.09375 16.742188 -14.144531 16.109375 -13.3125 C 15.484375 -12.476562 15.113281 -11.976562 15 -11.8125 C 14.476562 -10.945312 13.988281 -10.050781 13.53125 -9.125 C 13.070312 -8.207031 12.523438 -7.378906 11.890625 -6.640625 C 11.597656 -6.460938 11.394531 -6.40625 11.28125 -6.46875 C 10.9375 -6.238281 10.820312 -5.890625 10.9375 -5.421875 C 10.769531 -5.078125 10.597656 -4.734375 10.421875 -4.390625 C 10.253906 -4.046875 10.113281 -3.703125 10 -3.359375 C 9.59375 -2.609375 9.273438 -1.71875 9.046875 -0.6875 C 8.816406 0.34375 8.472656 1.203125 8.015625 1.890625 C 7.492188 2.753906 6.800781 3.128906 5.9375 3.015625 C 5.082031 2.898438 4.28125 2.582031 3.53125 2.0625 C 3.132812 1.78125 2.789062 1.46875 2.5 1.125 C 2.207031 0.78125 1.945312 0.40625 1.71875 0 C 1.71875 0 1.628906 -0.210938 1.453125 -0.640625 C 1.285156 -1.078125 1.234375 -1.296875 1.296875 -1.296875 C 1.234375 -1.460938 1.160156 -1.617188 1.078125 -1.765625 C 0.992188 -1.910156 0.921875 -2.097656 0.859375 -2.328125 C 0.921875 -2.097656 0.953125 -1.894531 0.953125 -1.71875 C 0.953125 -1.550781 0.953125 -1.492188 0.953125 -1.546875 C 0.429688 -1.773438 0.125 -2.445312 0.03125 -3.5625 C -0.0507812 -4.6875 -0.0351562 -5.851562 0.078125 -7.0625 C 0.203125 -8.269531 0.265625 -9.046875 0.265625 -9.390625 C 0.429688 -11.691406 0.710938 -13.960938 1.109375 -16.203125 C 1.515625 -18.441406 2.003906 -20.679688 2.578125 -22.921875 C 3.441406 -26.710938 4.503906 -30.472656 5.765625 -34.203125 C 7.035156 -37.941406 8.390625 -41.617188 9.828125 -45.234375 C 11.148438 -48.398438 12.484375 -51.546875 13.828125 -54.671875 C 15.179688 -57.804688 16.691406 -60.867188 18.359375 -63.859375 C 19.273438 -65.578125 20.25 -67.269531 21.28125 -68.9375 C 22.3125 -70.601562 23.429688 -72.179688 24.640625 -73.671875 C 25.679688 -74.941406 26.929688 -76.222656 28.390625 -77.515625 C 29.859375 -78.804688 31.484375 -79.421875 33.265625 -79.359375 C 34.984375 -79.304688 36.316406 -78.71875 37.265625 -77.59375 C 38.210938 -76.476562 38.859375 -75.113281 39.203125 -73.5 C 39.546875 -71.894531 39.703125 -70.257812 39.671875 -68.59375 C 39.648438 -66.925781 39.492188 -65.488281 39.203125 -64.28125 C 39.203125 -64.28125 39.203125 -63.960938 39.203125 -63.328125 C 39.203125 -62.703125 39.085938 -62.300781 38.859375 -62.125 C 38.921875 -62.1875 38.976562 -62.488281 39.03125 -63.03125 C 39.09375 -63.582031 39.125 -63.859375 39.125 -63.859375 L 38.609375 -61.78125 C 38.722656 -61.894531 38.804688 -61.894531 38.859375 -61.78125 C 38.972656 -61.207031 38.828125 -60.460938 38.421875 -59.546875 C 38.023438 -58.628906 37.710938 -57.910156 37.484375 -57.390625 C 37.140625 -56.640625 36.796875 -55.921875 36.453125 -55.234375 C 36.109375 -54.546875 35.707031 -53.859375 35.25 -53.171875 C 34.613281 -51.960938 33.921875 -50.769531 33.171875 -49.59375 C 32.429688 -48.414062 31.710938 -47.222656 31.015625 -46.015625 C 30.273438 -44.691406 29.414062 -43.441406 28.4375 -42.265625 C 27.457031 -41.085938 26.453125 -39.953125 25.421875 -38.859375 C 25.304688 -38.742188 24.972656 -38.398438 24.421875 -37.828125 C 23.878906 -37.253906 23.265625 -36.625 22.578125 -35.9375 C 21.890625 -35.25 21.253906 -34.671875 20.671875 -34.203125 C 20.097656 -33.742188 19.726562 -33.570312 19.5625 -33.6875 C 19.5625 -33.6875 19.703125 -33.832031 19.984375 -34.125 C 20.273438 -34.414062 20.421875 -34.585938 20.421875 -34.640625 C 19.847656 -34.179688 19.285156 -33.691406 18.734375 -33.171875 C 18.191406 -32.660156 17.601562 -32.175781 16.96875 -31.71875 C 17.144531 -31.832031 17.289062 -31.914062 17.40625 -31.96875 C 17.519531 -32.03125 17.578125 -32.0625 17.578125 -32.0625 C 17.117188 -31.3125 16.367188 -30.773438 15.328125 -30.453125 C 14.296875 -30.140625 13.550781 -29.582031 13.09375 -28.78125 C 12.519531 -27.863281 12.132812 -26.703125 11.9375 -25.296875 C 11.738281 -23.890625 11.519531 -22.640625 11.28125 -21.546875 C 10.25 -17.003906 9.390625 -12.378906 8.703125 -7.671875 L 8.875 -8.09375 L 8.53125 -6.71875 C 9.21875 -8.101562 10.003906 -9.441406 10.890625 -10.734375 C 11.785156 -12.023438 12.691406 -13.273438 13.609375 -14.484375 C 13.210938 -14.015625 12.753906 -13.507812 12.234375 -12.96875 C 11.710938 -12.425781 11.222656 -11.835938 10.765625 -11.203125 C 11.628906 -12.460938 12.535156 -13.695312 13.484375 -14.90625 C 14.429688 -16.113281 15.421875 -17.265625 16.453125 -18.359375 C 17.660156 -19.679688 18.984375 -21.054688 20.421875 -22.484375 C 21.859375 -23.921875 23.410156 -25.015625 25.078125 -25.765625 C 25.710938 -26.054688 26.328125 -26.257812 26.921875 -26.375 C 27.523438 -26.488281 28.144531 -26.429688 28.78125 -26.203125 C 30.445312 -25.679688 31.507812 -24.671875 31.96875 -23.171875 C 32.425781 -21.679688 32.6875 -20.25 32.75 -18.875 C 32.75 -19.21875 32.804688 -19.472656 32.921875 -19.640625 C 33.035156 -19.703125 33.101562 -19.34375 33.125 -18.5625 C 33.15625 -17.789062 33.171875 -17.003906 33.171875 -16.203125 C 33.171875 -15.398438 33.144531 -14.910156 33.09375 -14.734375 C 34.300781 -15.535156 35.492188 -16.3125 36.671875 -17.0625 C 37.847656 -17.8125 38.976562 -18.644531 40.0625 -19.5625 C 40.414062 -19.84375 40.804688 -20.195312 41.234375 -20.625 C 41.660156 -21.0625 42.085938 -21.394531 42.515625 -21.625 C 42.953125 -21.851562 43.34375 -21.710938 43.6875 -21.203125 L 43.78125 -21.203125 Z M 34.125 -75.484375 C 33.71875 -75.484375 33.398438 -75.367188 33.171875 -75.140625 C 33.285156 -75.253906 33.457031 -75.335938 33.6875 -75.390625 C 33.914062 -75.453125 34.0625 -75.425781 34.125 -75.3125 C 34.0625 -75.425781 33.726562 -75.164062 33.125 -74.53125 C 32.53125 -73.90625 31.882812 -73.203125 31.1875 -72.421875 C 30.5 -71.648438 30.015625 -71.09375 29.734375 -70.75 L 30.84375 -72.8125 C 29.757812 -71.375 28.800781 -69.878906 27.96875 -68.328125 C 27.132812 -66.773438 26.34375 -65.195312 25.59375 -63.59375 C 25.757812 -63.882812 25.929688 -64.054688 26.109375 -64.109375 C 25.992188 -63.992188 25.71875 -63.445312 25.28125 -62.46875 C 24.851562 -61.5 24.351562 -60.320312 23.78125 -58.9375 C 23.207031 -57.5625 22.644531 -56.171875 22.09375 -54.765625 C 21.550781 -53.359375 21.078125 -52.132812 20.671875 -51.09375 C 20.273438 -50.0625 20.019531 -49.429688 19.90625 -49.203125 C 18.925781 -46.671875 17.988281 -44.113281 17.09375 -41.53125 C 16.207031 -38.945312 15.363281 -36.363281 14.5625 -33.78125 C 16.519531 -35.332031 18.398438 -36.941406 20.203125 -38.609375 C 22.015625 -40.273438 23.695312 -42.082031 25.25 -44.03125 C 26.457031 -45.53125 27.675781 -47.097656 28.90625 -48.734375 C 30.144531 -50.367188 31.3125 -51.90625 32.40625 -53.34375 C 32.976562 -54.082031 33.445312 -55.039062 33.8125 -56.21875 C 34.1875 -57.40625 34.519531 -58.457031 34.8125 -59.375 C 35.269531 -60.519531 35.640625 -61.707031 35.921875 -62.9375 C 36.210938 -64.175781 36.390625 -65.429688 36.453125 -66.703125 C 36.453125 -67.097656 36.460938 -67.769531 36.484375 -68.71875 C 36.515625 -69.664062 36.472656 -70.65625 36.359375 -71.6875 C 36.242188 -72.726562 36.015625 -73.617188 35.671875 -74.359375 C 35.328125 -75.109375 34.8125 -75.484375 34.125 -75.484375 Z M 17.140625 -59.71875 C 15.648438 -56.90625 14.269531 -54.019531 13 -51.0625 C 11.738281 -48.101562 10.566406 -45.128906 9.484375 -42.140625 C 10.628906 -45.128906 11.863281 -48.085938 13.1875 -51.015625 C 14.507812 -53.941406 15.972656 -56.8125 17.578125 -59.625 C 18.671875 -61.46875 19.75 -63.289062 20.8125 -65.09375 C 21.875 -66.90625 23.035156 -68.675781 24.296875 -70.40625 C 25.210938 -71.664062 26.21875 -72.882812 27.3125 -74.0625 C 28.40625 -75.238281 29.695312 -76.085938 31.1875 -76.609375 C 29.644531 -76.085938 28.253906 -75.222656 27.015625 -74.015625 C 25.773438 -72.816406 24.726562 -71.640625 23.875 -70.484375 C 22.550781 -68.765625 21.34375 -67.015625 20.25 -65.234375 C 19.15625 -63.453125 18.117188 -61.613281 17.140625 -59.71875 Z M 22.828125 -8.4375 C 23.867188 -10.050781 24.90625 -11.773438 25.9375 -13.609375 C 26.96875 -15.453125 27.628906 -17.347656 27.921875 -19.296875 C 27.628906 -17.921875 27.09375 -16.484375 26.3125 -14.984375 C 25.539062 -13.492188 24.984375 -12.519531 24.640625 -12.0625 C 23.898438 -11.03125 23.171875 -10.007812 22.453125 -9 C 21.734375 -8 20.972656 -7.007812 20.171875 -6.03125 C 19.585938 -5.394531 19.066406 -4.773438 18.609375 -4.171875 C 18.148438 -3.578125 17.632812 -3.101562 17.0625 -2.75 C 18.15625 -3.382812 19.203125 -4.25 20.203125 -5.34375 C 21.210938 -6.4375 22.085938 -7.46875 22.828125 -8.4375 Z M 14.125 -33.4375 C 14.414062 -33.664062 14.632812 -34.140625 14.78125 -34.859375 C 14.925781 -35.578125 15.023438 -36.109375 15.078125 -36.453125 L 15.515625 -38 L 14.390625 -34.46875 L 14.390625 -34.375 C 14.328125 -34.320312 14.296875 -34.238281 14.296875 -34.125 C 14.296875 -34.0625 14.28125 -34 14.25 -33.9375 C 14.226562 -33.882812 14.21875 -33.832031 14.21875 -33.78125 L 14.125 -33.609375 Z M 18.015625 -45.0625 L 22.234375 -55.84375 C 21.484375 -54.0625 20.765625 -52.28125 20.078125 -50.5 C 19.390625 -48.71875 18.703125 -46.90625 18.015625 -45.0625 Z M 8.96875 -8.1875 C 9.195312 -8.707031 9.46875 -9.222656 9.78125 -9.734375 C 10.09375 -10.253906 10.421875 -10.742188 10.765625 -11.203125 Z M 14.125 -33.4375 C 14.125 -33.488281 14.140625 -33.53125 14.171875 -33.5625 C 14.203125 -33.59375 14.21875 -33.632812 14.21875 -33.6875 L 14.125 -33.609375 Z M 16.109375 -17.578125 L 16.03125 -17.5 C 16.03125 -17.5 16.039062 -17.5 16.0625 -17.5 C 16.09375 -17.5 16.109375 -17.523438 16.109375 -17.578125 Z M 16.109375 -17.578125 "/></g></g></g><g fill="#000000" fill-opacity="1"><g transform="translate(129.502512, 103.313644)"><g><path d="M 40.765625 -21.03125 C 40.816406 -20.507812 40.597656 -19.859375 40.109375 -19.078125 C 39.617188 -18.304688 39.234375 -17.691406 38.953125 -17.234375 C 38.378906 -16.203125 37.6875 -15.210938 36.875 -14.265625 C 36.070312 -13.316406 35.269531 -12.378906 34.46875 -11.453125 C 33.664062 -10.597656 32.734375 -9.609375 31.671875 -8.484375 C 30.609375 -7.367188 29.457031 -6.394531 28.21875 -5.5625 C 26.988281 -4.726562 25.679688 -4.253906 24.296875 -4.140625 C 23.378906 -4.078125 22.460938 -4.257812 21.546875 -4.6875 C 20.628906 -5.125 19.910156 -5.773438 19.390625 -6.640625 C 18.816406 -7.722656 18.570312 -8.882812 18.65625 -10.125 C 18.738281 -11.363281 18.992188 -12.582031 19.421875 -13.78125 C 19.859375 -14.988281 20.25 -16.082031 20.59375 -17.0625 C 19.5 -15.738281 18.40625 -14.398438 17.3125 -13.046875 C 16.226562 -11.703125 15.140625 -10.34375 14.046875 -8.96875 C 13.867188 -8.789062 13.40625 -8.3125 12.65625 -7.53125 C 11.914062 -6.757812 11.070312 -5.941406 10.125 -5.078125 C 9.175781 -4.222656 8.3125 -3.535156 7.53125 -3.015625 C 6.757812 -2.492188 6.257812 -2.378906 6.03125 -2.671875 C 6.03125 -2.722656 6.160156 -2.804688 6.421875 -2.921875 C 6.679688 -3.046875 6.78125 -3.132812 6.71875 -3.1875 C 6.320312 -2.957031 5.878906 -2.738281 5.390625 -2.53125 C 4.898438 -2.332031 4.425781 -2.234375 3.96875 -2.234375 C 4.019531 -2.179688 4.160156 -2.15625 4.390625 -2.15625 C 4.453125 -1.976562 4.28125 -1.914062 3.875 -1.96875 C 3.476562 -2.03125 3.0625 -2.144531 2.625 -2.3125 C 2.195312 -2.488281 1.925781 -2.609375 1.8125 -2.671875 C 1.351562 -3.128906 0.992188 -3.671875 0.734375 -4.296875 C 0.472656 -4.929688 0.285156 -5.539062 0.171875 -6.125 C -0.0546875 -7.5 -0.0859375 -8.875 0.078125 -10.25 C 0.253906 -11.632812 0.515625 -12.984375 0.859375 -14.296875 C 1.203125 -15.679688 1.570312 -17.046875 1.96875 -18.390625 C 2.375 -19.742188 2.867188 -21.082031 3.453125 -22.40625 C 3.734375 -23.09375 4.101562 -23.664062 4.5625 -24.125 C 5.019531 -24.582031 5.394531 -25.097656 5.6875 -25.671875 C 6.144531 -26.765625 6.703125 -27.925781 7.359375 -29.15625 C 8.023438 -30.394531 8.816406 -31.390625 9.734375 -32.140625 C 10.535156 -32.828125 11.523438 -33.140625 12.703125 -33.078125 C 13.890625 -33.023438 14.851562 -32.6875 15.59375 -32.0625 C 16.394531 -31.476562 16.679688 -30.984375 16.453125 -30.578125 C 16.222656 -30.179688 15.9375 -29.671875 15.59375 -29.046875 C 15.769531 -29.328125 15.941406 -29.5 16.109375 -29.5625 C 16.171875 -29.5625 16.03125 -29.210938 15.6875 -28.515625 C 15.34375 -27.828125 14.984375 -27.140625 14.609375 -26.453125 C 14.234375 -25.765625 13.957031 -25.421875 13.78125 -25.421875 C 13.78125 -25.421875 13.835938 -25.59375 13.953125 -25.9375 C 14.066406 -26.28125 14.179688 -26.566406 14.296875 -26.796875 C 13.722656 -25.816406 13.175781 -24.8125 12.65625 -23.78125 C 12.144531 -22.75 11.660156 -21.71875 11.203125 -20.6875 C 11.367188 -20.914062 11.539062 -21.03125 11.71875 -21.03125 C 11.664062 -21.03125 11.460938 -20.625 11.109375 -19.8125 C 10.765625 -19.007812 10.378906 -18.0625 9.953125 -16.96875 C 9.523438 -15.882812 9.132812 -14.894531 8.78125 -14 C 8.4375 -13.113281 8.238281 -12.582031 8.1875 -12.40625 C 8.070312 -12.007812 7.898438 -11.40625 7.671875 -10.59375 C 7.441406 -9.789062 7.351562 -9.113281 7.40625 -8.5625 C 7.46875 -8.019531 7.867188 -7.863281 8.609375 -8.09375 C 9.878906 -8.4375 11.085938 -9.285156 12.234375 -10.640625 C 13.378906 -11.992188 14.328125 -13.128906 15.078125 -14.046875 C 16.109375 -15.191406 17.066406 -16.394531 17.953125 -17.65625 C 18.847656 -18.925781 19.757812 -20.191406 20.6875 -21.453125 C 21.3125 -22.429688 22 -23.492188 22.75 -24.640625 C 23.5 -25.796875 24.40625 -26.71875 25.46875 -27.40625 C 26.53125 -28.09375 27.78125 -28.234375 29.21875 -27.828125 C 30.53125 -27.484375 31.1875 -26.851562 31.1875 -25.9375 C 31.1875 -25.019531 30.914062 -24.03125 30.375 -22.96875 C 29.832031 -21.90625 29.359375 -20.972656 28.953125 -20.171875 C 29.242188 -20.453125 29.390625 -20.566406 29.390625 -20.515625 C 29.554688 -20.335938 29.523438 -19.914062 29.296875 -19.25 C 29.066406 -18.59375 28.804688 -17.921875 28.515625 -17.234375 C 28.234375 -16.546875 28.035156 -16.054688 27.921875 -15.765625 C 27.691406 -14.960938 27.429688 -14.101562 27.140625 -13.1875 C 26.859375 -12.269531 26.6875 -11.347656 26.625 -10.421875 C 26.570312 -9.390625 26.703125 -8.929688 27.015625 -9.046875 C 27.328125 -9.160156 27.828125 -9.476562 28.515625 -10 C 30.015625 -11.144531 31.378906 -12.421875 32.609375 -13.828125 C 33.847656 -15.234375 35.097656 -16.597656 36.359375 -17.921875 C 36.421875 -17.984375 36.664062 -18.242188 37.09375 -18.703125 C 37.53125 -19.160156 38.019531 -19.644531 38.5625 -20.15625 C 39.101562 -20.675781 39.585938 -21.050781 40.015625 -21.28125 C 40.453125 -21.507812 40.703125 -21.425781 40.765625 -21.03125 Z M 27.65625 -19.296875 C 27.945312 -20.222656 28.289062 -21.128906 28.6875 -22.015625 C 29.09375 -22.910156 29.46875 -23.816406 29.8125 -24.734375 C 29.53125 -24.046875 29.128906 -23.285156 28.609375 -22.453125 C 28.085938 -21.617188 27.640625 -20.796875 27.265625 -19.984375 C 26.898438 -19.179688 26.832031 -18.410156 27.0625 -17.671875 C 27.0625 -17.554688 27.03125 -17.46875 26.96875 -17.40625 C 27.082031 -17.519531 27.140625 -17.609375 27.140625 -17.671875 C 27.253906 -17.898438 27.351562 -18.171875 27.4375 -18.484375 C 27.53125 -18.796875 27.601562 -19.066406 27.65625 -19.296875 Z M 7.15625 -8.1875 C 7.09375 -8.59375 7.304688 -9.65625 7.796875 -11.375 C 8.285156 -13.09375 8.816406 -14.785156 9.390625 -16.453125 C 8.929688 -15.304688 8.382812 -13.957031 7.75 -12.40625 C 7.125 -10.851562 6.925781 -9.445312 7.15625 -8.1875 Z M 20.59375 -16.625 C 20.707031 -16.96875 20.820312 -17.226562 20.9375 -17.40625 C 20.707031 -17.226562 20.59375 -16.96875 20.59375 -16.625 Z M 20.59375 -16.625 "/></g></g></g><g fill="#000000" fill-opacity="1"><g transform="translate(163.970716, 103.313644)"><g><path d="M 34.46875 -21.96875 C 35.15625 -22.664062 35.640625 -22.867188 35.921875 -22.578125 C 36.210938 -22.285156 36.375 -21.8125 36.40625 -21.15625 C 36.4375 -20.5 36.394531 -19.9375 36.28125 -19.46875 C 36.050781 -18.550781 35.675781 -17.644531 35.15625 -16.75 C 34.632812 -15.863281 34.117188 -14.988281 33.609375 -14.125 C 32.347656 -12.0625 31.113281 -9.953125 29.90625 -7.796875 C 28.695312 -5.640625 27.375 -3.53125 25.9375 -1.46875 C 24.382812 0.769531 22.757812 2.992188 21.0625 5.203125 C 19.375 7.421875 17.523438 9.503906 15.515625 11.453125 C 14.421875 12.492188 13.179688 13.398438 11.796875 14.171875 C 10.421875 14.953125 9.03125 15.328125 7.625 15.296875 C 6.21875 15.265625 4.828125 14.644531 3.453125 13.4375 C 2.242188 12.289062 1.394531 10.925781 0.90625 9.34375 C 0.414062 7.769531 0.140625 6.101562 0.078125 4.34375 C 0.0234375 2.59375 0.03125 0.972656 0.09375 -0.515625 C 0.257812 -2.929688 0.613281 -5.316406 1.15625 -7.671875 C 1.707031 -10.023438 2.269531 -12.351562 2.84375 -14.65625 C 2.90625 -14.769531 2.9375 -15.195312 2.9375 -15.9375 C 2.9375 -16.6875 3.050781 -17.207031 3.28125 -17.5 C 3.21875 -17.4375 3.1875 -17.273438 3.1875 -17.015625 C 3.1875 -16.753906 3.160156 -16.484375 3.109375 -16.203125 C 3.222656 -16.484375 3.320312 -16.78125 3.40625 -17.09375 C 3.488281 -17.414062 3.585938 -17.722656 3.703125 -18.015625 L 3.453125 -18.015625 C 3.335938 -18.867188 3.492188 -19.882812 3.921875 -21.0625 C 4.347656 -22.238281 4.675781 -23.234375 4.90625 -24.046875 C 5.195312 -25.015625 5.515625 -26.015625 5.859375 -27.046875 C 6.203125 -28.085938 6.546875 -29.097656 6.890625 -30.078125 C 7.523438 -31.910156 8.1875 -33.742188 8.875 -35.578125 C 9.5625 -37.421875 10.191406 -39.265625 10.765625 -41.109375 C 11.347656 -42.941406 12.039062 -44.75 12.84375 -46.53125 C 13.644531 -48.3125 14.476562 -50.066406 15.34375 -51.796875 C 16.144531 -53.453125 17.003906 -55.085938 17.921875 -56.703125 C 18.035156 -56.867188 18.265625 -57.28125 18.609375 -57.9375 C 18.953125 -58.601562 19.328125 -59.253906 19.734375 -59.890625 C 20.140625 -60.523438 20.398438 -60.8125 20.515625 -60.75 L 19.8125 -59.28125 L 22.578125 -64.03125 L 22.484375 -63.9375 C 22.710938 -64.28125 22.957031 -64.722656 23.21875 -65.265625 C 23.476562 -65.816406 23.722656 -66.207031 23.953125 -66.4375 L 25.9375 -69.109375 C 26.570312 -69.859375 27.257812 -70.660156 28 -71.515625 C 28.75 -72.378906 29.613281 -72.957031 30.59375 -73.25 C 31.851562 -73.644531 33.015625 -73.554688 34.078125 -72.984375 C 35.140625 -72.410156 36.015625 -71.578125 36.703125 -70.484375 C 37.398438 -69.390625 37.832031 -68.269531 38 -67.125 L 38.09375 -67.046875 L 38.09375 -66.609375 C 38.257812 -64.890625 38.082031 -63.082031 37.5625 -61.1875 C 37.050781 -59.289062 36.390625 -57.4375 35.578125 -55.625 C 34.773438 -53.8125 33.972656 -52.160156 33.171875 -50.671875 C 32.484375 -49.285156 31.75 -47.832031 30.96875 -46.3125 C 30.195312 -44.789062 29.265625 -43.457031 28.171875 -42.3125 C 27.429688 -41.507812 26.828125 -40.660156 26.359375 -39.765625 C 25.898438 -38.878906 25.359375 -37.945312 24.734375 -36.96875 C 23.117188 -34.320312 21.421875 -31.707031 19.640625 -29.125 C 17.859375 -26.539062 15.992188 -24.039062 14.046875 -21.625 C 13.585938 -21.050781 13.195312 -20.519531 12.875 -20.03125 C 12.5625 -19.539062 12.289062 -18.894531 12.0625 -18.09375 C 11.832031 -17.289062 11.601562 -16.472656 11.375 -15.640625 C 11.144531 -14.804688 10.914062 -13.957031 10.6875 -13.09375 C 10.457031 -12.238281 10.226562 -11.378906 10 -10.515625 C 9.769531 -9.648438 9.539062 -8.785156 9.3125 -7.921875 C 9.25 -7.523438 9.070312 -6.894531 8.78125 -6.03125 C 8.5 -5.164062 8.382812 -4.675781 8.4375 -4.5625 C 8.207031 -3.59375 8.035156 -2.53125 7.921875 -1.375 L 8.609375 -3.96875 C 8.847656 -3.625 8.863281 -2.960938 8.65625 -1.984375 C 8.457031 -1.003906 8.328125 -0.3125 8.265625 0.09375 C 8.097656 1.351562 8.015625 2.703125 8.015625 4.140625 C 8.015625 4.648438 8.039062 5.335938 8.09375 6.203125 C 8.15625 7.066406 8.34375 7.859375 8.65625 8.578125 C 8.976562 9.296875 9.484375 9.710938 10.171875 9.828125 C 11.148438 9.941406 12.125 9.625 13.09375 8.875 C 14.070312 8.125 14.960938 7.257812 15.765625 6.28125 C 16.566406 5.3125 17.203125 4.539062 17.671875 3.96875 C 19.453125 1.84375 21.101562 -0.378906 22.625 -2.703125 C 24.144531 -5.035156 25.625 -7.351562 27.0625 -9.65625 C 27.863281 -10.851562 28.625 -12.054688 29.34375 -13.265625 C 30.0625 -14.472656 30.789062 -15.707031 31.53125 -16.96875 C 32 -17.78125 32.460938 -18.660156 32.921875 -19.609375 C 33.378906 -20.554688 33.894531 -21.34375 34.46875 -21.96875 Z M 23.703125 -52.828125 C 22.085938 -48.972656 20.632812 -45.035156 19.34375 -41.015625 C 18.050781 -36.992188 16.773438 -33.085938 15.515625 -29.296875 C 18.734375 -34.410156 21.960938 -39.679688 25.203125 -45.109375 C 28.453125 -50.535156 31.050781 -56.125 33 -61.875 C 32.257812 -59.800781 31.382812 -57.773438 30.375 -55.796875 C 29.375 -53.816406 28.382812 -51.878906 27.40625 -49.984375 C 26.832031 -48.890625 26.242188 -47.8125 25.640625 -46.75 C 25.035156 -45.6875 24.414062 -44.609375 23.78125 -43.515625 C 23.382812 -42.878906 22.882812 -42.113281 22.28125 -41.21875 C 21.675781 -40.332031 21.226562 -39.546875 20.9375 -38.859375 C 21.28125 -40.015625 21.882812 -41.191406 22.75 -42.390625 C 23.613281 -43.597656 24.332031 -44.71875 24.90625 -45.75 L 28.515625 -52.484375 C 29.554688 -54.546875 30.691406 -56.796875 31.921875 -59.234375 C 33.160156 -61.679688 33.804688 -64.113281 33.859375 -66.53125 L 33.859375 -66.609375 C 33.921875 -67.753906 33.765625 -68.367188 33.390625 -68.453125 C 33.015625 -68.546875 32.550781 -68.363281 32 -67.90625 C 31.457031 -67.445312 30.957031 -66.914062 30.5 -66.3125 C 30.039062 -65.707031 29.726562 -65.289062 29.5625 -65.0625 C 28.351562 -63.101562 27.285156 -61.085938 26.359375 -59.015625 C 25.441406 -56.953125 24.554688 -54.890625 23.703125 -52.828125 Z M 20.9375 -58.859375 C 20.476562 -57.941406 20.03125 -57.050781 19.59375 -56.1875 C 19.164062 -55.320312 18.753906 -54.398438 18.359375 -53.421875 C 18.296875 -53.367188 18.265625 -53.253906 18.265625 -53.078125 C 19.242188 -54.804688 20.25 -56.515625 21.28125 -58.203125 C 22.3125 -59.898438 23.289062 -61.640625 24.21875 -63.421875 C 23.8125 -62.671875 23.273438 -61.921875 22.609375 -61.171875 C 21.953125 -60.429688 21.394531 -59.660156 20.9375 -58.859375 Z M 4.65625 -14.296875 C 4.707031 -14.359375 4.734375 -14.429688 4.734375 -14.515625 C 4.734375 -14.609375 4.675781 -14.625 4.5625 -14.5625 C 4.394531 -14.5625 4.207031 -14.171875 4 -13.390625 C 3.800781 -12.617188 3.644531 -11.742188 3.53125 -10.765625 L 3.53125 -10.859375 C 3.25 -9.359375 3.019531 -7.816406 2.84375 -6.234375 C 2.664062 -4.660156 2.519531 -3.097656 2.40625 -1.546875 L 2.671875 -4.3125 L 2.671875 -4.046875 C 2.671875 -4.335938 2.695312 -4.625 2.75 -4.90625 C 2.8125 -5.195312 2.875 -5.488281 2.9375 -5.78125 C 3.21875 -7.09375 3.429688 -8.492188 3.578125 -9.984375 C 3.722656 -11.484375 4.050781 -12.835938 4.5625 -14.046875 C 4.5625 -14.046875 4.5625 -14.070312 4.5625 -14.125 C 4.5625 -14.1875 4.59375 -14.242188 4.65625 -14.296875 Z M 4.65625 -14.296875 "/></g></g></g><g fill="#000000" fill-opacity="1"><g transform="translate(194.475067, 103.313644)"><g><path d="M 43.859375 -20.765625 C 43.972656 -19.785156 43.6875 -18.804688 43 -17.828125 C 42.3125 -16.859375 41.796875 -15.972656 41.453125 -15.171875 C 40.878906 -13.898438 40.273438 -12.660156 39.640625 -11.453125 C 39.003906 -10.253906 38.34375 -9.078125 37.65625 -7.921875 C 36.851562 -6.660156 36.035156 -5.410156 35.203125 -4.171875 C 34.367188 -2.941406 33.460938 -1.753906 32.484375 -0.609375 C 31.734375 0.367188 30.828125 1.375 29.765625 2.40625 C 28.703125 3.445312 27.515625 4.082031 26.203125 4.3125 C 24.765625 4.539062 23.484375 4.164062 22.359375 3.1875 C 21.242188 2.207031 20.453125 1.085938 19.984375 -0.171875 C 18.953125 -2.703125 18.664062 -5.273438 19.125 -7.890625 C 19.582031 -10.503906 20.1875 -13.046875 20.9375 -15.515625 C 20.9375 -15.515625 20.9375 -15.671875 20.9375 -15.984375 C 20.9375 -16.296875 20.96875 -16.597656 21.03125 -16.890625 C 20.625 -16.253906 20.144531 -15.578125 19.59375 -14.859375 C 19.050781 -14.140625 18.582031 -13.46875 18.1875 -12.84375 C 17.664062 -12.039062 17.1875 -11.234375 16.75 -10.421875 C 16.320312 -9.617188 15.820312 -8.816406 15.25 -8.015625 C 15.132812 -7.835938 14.675781 -7.273438 13.875 -6.328125 C 13.070312 -5.378906 12.164062 -4.359375 11.15625 -3.265625 C 10.15625 -2.179688 9.222656 -1.304688 8.359375 -0.640625 C 7.492188 0.015625 6.945312 0.171875 6.71875 -0.171875 C 6.71875 -0.171875 6.890625 -0.253906 7.234375 -0.421875 C 7.578125 -0.597656 7.722656 -0.71875 7.671875 -0.78125 C 6.578125 -0.03125 5.367188 0.140625 4.046875 -0.265625 C 4.335938 -0.0859375 4.453125 0 4.390625 0 C 3.765625 0.0625 3.175781 -0.164062 2.625 -0.6875 C 2.082031 -1.207031 1.625 -1.8125 1.25 -2.5 C 0.875 -3.1875 0.601562 -3.757812 0.4375 -4.21875 C 0.0820312 -5.425781 -0.078125 -6.675781 -0.046875 -7.96875 C -0.015625 -9.257812 0.113281 -10.507812 0.34375 -11.71875 C 0.800781 -14.25 1.546875 -16.804688 2.578125 -19.390625 C 3.617188 -21.972656 4.859375 -24.328125 6.296875 -26.453125 C 6.691406 -26.972656 7.085938 -27.503906 7.484375 -28.046875 C 7.890625 -28.597656 8.382812 -29.070312 8.96875 -29.46875 C 9.3125 -29.757812 9.640625 -29.972656 9.953125 -30.109375 C 10.265625 -30.253906 10.625 -30.441406 11.03125 -30.671875 C 11.664062 -31.242188 12.3125 -31.734375 12.96875 -32.140625 C 13.625 -32.546875 14.414062 -32.75 15.34375 -32.75 C 16.78125 -32.75 17.941406 -32.300781 18.828125 -31.40625 C 19.722656 -30.519531 20.425781 -29.441406 20.9375 -28.171875 C 21.457031 -26.910156 21.859375 -25.734375 22.140625 -24.640625 C 22.835938 -25.566406 23.6875 -26.441406 24.6875 -27.265625 C 25.695312 -28.097656 26.757812 -28.585938 27.875 -28.734375 C 29 -28.878906 30.078125 -28.289062 31.109375 -26.96875 C 31.972656 -25.9375 32.242188 -25.003906 31.921875 -24.171875 C 31.609375 -23.335938 31.222656 -22.429688 30.765625 -21.453125 C 29.960938 -19.960938 29.242188 -18.335938 28.609375 -16.578125 C 27.972656 -14.828125 27.484375 -13.179688 27.140625 -11.640625 C 27.203125 -11.753906 27.289062 -12.039062 27.40625 -12.5 C 27.519531 -12.957031 27.660156 -13.210938 27.828125 -13.265625 C 27.941406 -13.328125 27.910156 -12.910156 27.734375 -12.015625 C 27.566406 -11.128906 27.335938 -10.050781 27.046875 -8.78125 C 26.765625 -7.519531 26.550781 -6.285156 26.40625 -5.078125 C 26.269531 -3.878906 26.300781 -2.929688 26.5 -2.234375 C 26.695312 -1.546875 27.15625 -1.359375 27.875 -1.671875 C 28.59375 -1.992188 29.695312 -3.070312 31.1875 -4.90625 C 32.507812 -6.570312 33.773438 -8.28125 34.984375 -10.03125 C 36.191406 -11.789062 37.367188 -13.5625 38.515625 -15.34375 C 39.035156 -16.144531 39.550781 -16.972656 40.0625 -17.828125 C 40.582031 -18.691406 41.128906 -19.53125 41.703125 -20.34375 C 41.878906 -20.570312 42.140625 -20.84375 42.484375 -21.15625 C 42.828125 -21.46875 43.140625 -21.640625 43.421875 -21.671875 C 43.710938 -21.703125 43.859375 -21.398438 43.859375 -20.765625 Z M 19.125 -20.171875 C 19.351562 -20.515625 19.484375 -20.742188 19.515625 -20.859375 C 19.546875 -20.972656 19.5625 -21.203125 19.5625 -21.546875 C 19.5625 -21.773438 19.414062 -22.332031 19.125 -23.21875 C 18.84375 -24.113281 18.597656 -24.988281 18.390625 -25.84375 C 18.191406 -26.707031 18.148438 -27.195312 18.265625 -27.3125 C 18.328125 -27.375 18.425781 -27.1875 18.5625 -26.75 C 18.707031 -26.320312 18.851562 -25.890625 19 -25.453125 C 19.144531 -25.023438 19.21875 -24.785156 19.21875 -24.734375 C 19.15625 -25.078125 19.050781 -25.578125 18.90625 -26.234375 C 18.769531 -26.898438 18.554688 -27.519531 18.265625 -28.09375 C 17.984375 -28.664062 17.582031 -28.953125 17.0625 -28.953125 C 16.144531 -28.953125 15.28125 -28.492188 14.46875 -27.578125 C 13.664062 -26.660156 12.992188 -25.625 12.453125 -24.46875 C 11.910156 -23.320312 11.460938 -22.40625 11.109375 -21.71875 C 10.253906 -19.757812 9.46875 -17.757812 8.75 -15.71875 C 8.03125 -13.6875 7.5 -11.609375 7.15625 -9.484375 C 7.207031 -9.765625 7.421875 -10.507812 7.796875 -11.71875 C 8.171875 -12.925781 8.644531 -14.347656 9.21875 -15.984375 C 9.789062 -17.617188 10.378906 -19.226562 10.984375 -20.8125 C 11.585938 -22.394531 12.160156 -23.703125 12.703125 -24.734375 C 13.253906 -25.765625 13.671875 -26.28125 13.953125 -26.28125 C 13.722656 -26.226562 13.378906 -25.738281 12.921875 -24.8125 C 12.460938 -23.894531 11.957031 -22.742188 11.40625 -21.359375 C 10.863281 -19.984375 10.332031 -18.59375 9.8125 -17.1875 C 9.300781 -15.78125 8.875 -14.546875 8.53125 -13.484375 C 8.1875 -12.421875 7.984375 -11.773438 7.921875 -11.546875 C 7.867188 -11.316406 7.726562 -10.769531 7.5 -9.90625 C 7.269531 -9.039062 7.140625 -8.207031 7.109375 -7.40625 C 7.078125 -6.601562 7.265625 -6.117188 7.671875 -5.953125 C 7.953125 -5.890625 8.335938 -6.054688 8.828125 -6.453125 C 9.316406 -6.859375 9.773438 -7.332031 10.203125 -7.875 C 10.640625 -8.425781 10.914062 -8.789062 11.03125 -8.96875 C 12.695312 -10.976562 14.25 -13.046875 15.6875 -15.171875 L 17.921875 -18.359375 C 18.097656 -18.640625 18.285156 -18.9375 18.484375 -19.25 C 18.679688 -19.570312 18.894531 -19.878906 19.125 -20.171875 Z M 21.109375 -15.9375 L 21.890625 -18.015625 L 21.453125 -17.40625 C 21.398438 -17.289062 21.328125 -17.015625 21.234375 -16.578125 C 21.148438 -16.148438 21.109375 -15.9375 21.109375 -15.9375 Z M 19.8125 -21.28125 C 20.050781 -21.507812 20.050781 -21.796875 19.8125 -22.140625 Z M 19.8125 -21.28125 "/></g></g></g><g fill="#000000" fill-opacity="1"><g transform="translate(232.045404, 103.313644)"><g><path d="M 43.859375 -20.765625 C 43.972656 -19.785156 43.6875 -18.804688 43 -17.828125 C 42.3125 -16.859375 41.796875 -15.972656 41.453125 -15.171875 C 40.878906 -13.898438 40.273438 -12.660156 39.640625 -11.453125 C 39.003906 -10.253906 38.34375 -9.078125 37.65625 -7.921875 C 36.851562 -6.660156 36.035156 -5.410156 35.203125 -4.171875 C 34.367188 -2.941406 33.460938 -1.753906 32.484375 -0.609375 C 31.734375 0.367188 30.828125 1.375 29.765625 2.40625 C 28.703125 3.445312 27.515625 4.082031 26.203125 4.3125 C 24.765625 4.539062 23.484375 4.164062 22.359375 3.1875 C 21.242188 2.207031 20.453125 1.085938 19.984375 -0.171875 C 18.953125 -2.703125 18.664062 -5.273438 19.125 -7.890625 C 19.582031 -10.503906 20.1875 -13.046875 20.9375 -15.515625 C 20.9375 -15.515625 20.9375 -15.671875 20.9375 -15.984375 C 20.9375 -16.296875 20.96875 -16.597656 21.03125 -16.890625 C 20.625 -16.253906 20.144531 -15.578125 19.59375 -14.859375 C 19.050781 -14.140625 18.582031 -13.46875 18.1875 -12.84375 C 17.664062 -12.039062 17.1875 -11.234375 16.75 -10.421875 C 16.320312 -9.617188 15.820312 -8.816406 15.25 -8.015625 C 15.132812 -7.835938 14.675781 -7.273438 13.875 -6.328125 C 13.070312 -5.378906 12.164062 -4.359375 11.15625 -3.265625 C 10.15625 -2.179688 9.222656 -1.304688 8.359375 -0.640625 C 7.492188 0.015625 6.945312 0.171875 6.71875 -0.171875 C 6.71875 -0.171875 6.890625 -0.253906 7.234375 -0.421875 C 7.578125 -0.597656 7.722656 -0.71875 7.671875 -0.78125 C 6.578125 -0.03125 5.367188 0.140625 4.046875 -0.265625 C 4.335938 -0.0859375 4.453125 0 4.390625 0 C 3.765625 0.0625 3.175781 -0.164062 2.625 -0.6875 C 2.082031 -1.207031 1.625 -1.8125 1.25 -2.5 C 0.875 -3.1875 0.601562 -3.757812 0.4375 -4.21875 C 0.0820312 -5.425781 -0.078125 -6.675781 -0.046875 -7.96875 C -0.015625 -9.257812 0.113281 -10.507812 0.34375 -11.71875 C 0.800781 -14.25 1.546875 -16.804688 2.578125 -19.390625 C 3.617188 -21.972656 4.859375 -24.328125 6.296875 -26.453125 C 6.691406 -26.972656 7.085938 -27.503906 7.484375 -28.046875 C 7.890625 -28.597656 8.382812 -29.070312 8.96875 -29.46875 C 9.3125 -29.757812 9.640625 -29.972656 9.953125 -30.109375 C 10.265625 -30.253906 10.625 -30.441406 11.03125 -30.671875 C 11.664062 -31.242188 12.3125 -31.734375 12.96875 -32.140625 C 13.625 -32.546875 14.414062 -32.75 15.34375 -32.75 C 16.78125 -32.75 17.941406 -32.300781 18.828125 -31.40625 C 19.722656 -30.519531 20.425781 -29.441406 20.9375 -28.171875 C 21.457031 -26.910156 21.859375 -25.734375 22.140625 -24.640625 C 22.835938 -25.566406 23.6875 -26.441406 24.6875 -27.265625 C 25.695312 -28.097656 26.757812 -28.585938 27.875 -28.734375 C 29 -28.878906 30.078125 -28.289062 31.109375 -26.96875 C 31.972656 -25.9375 32.242188 -25.003906 31.921875 -24.171875 C 31.609375 -23.335938 31.222656 -22.429688 30.765625 -21.453125 C 29.960938 -19.960938 29.242188 -18.335938 28.609375 -16.578125 C 27.972656 -14.828125 27.484375 -13.179688 27.140625 -11.640625 C 27.203125 -11.753906 27.289062 -12.039062 27.40625 -12.5 C 27.519531 -12.957031 27.660156 -13.210938 27.828125 -13.265625 C 27.941406 -13.328125 27.910156 -12.910156 27.734375 -12.015625 C 27.566406 -11.128906 27.335938 -10.050781 27.046875 -8.78125 C 26.765625 -7.519531 26.550781 -6.285156 26.40625 -5.078125 C 26.269531 -3.878906 26.300781 -2.929688 26.5 -2.234375 C 26.695312 -1.546875 27.15625 -1.359375 27.875 -1.671875 C 28.59375 -1.992188 29.695312 -3.070312 31.1875 -4.90625 C 32.507812 -6.570312 33.773438 -8.28125 34.984375 -10.03125 C 36.191406 -11.789062 37.367188 -13.5625 38.515625 -15.34375 C 39.035156 -16.144531 39.550781 -16.972656 40.0625 -17.828125 C 40.582031 -18.691406 41.128906 -19.53125 41.703125 -20.34375 C 41.878906 -20.570312 42.140625 -20.84375 42.484375 -21.15625 C 42.828125 -21.46875 43.140625 -21.640625 43.421875 -21.671875 C 43.710938 -21.703125 43.859375 -21.398438 43.859375 -20.765625 Z M 19.125 -20.171875 C 19.351562 -20.515625 19.484375 -20.742188 19.515625 -20.859375 C 19.546875 -20.972656 19.5625 -21.203125 19.5625 -21.546875 C 19.5625 -21.773438 19.414062 -22.332031 19.125 -23.21875 C 18.84375 -24.113281 18.597656 -24.988281 18.390625 -25.84375 C 18.191406 -26.707031 18.148438 -27.195312 18.265625 -27.3125 C 18.328125 -27.375 18.425781 -27.1875 18.5625 -26.75 C 18.707031 -26.320312 18.851562 -25.890625 19 -25.453125 C 19.144531 -25.023438 19.21875 -24.785156 19.21875 -24.734375 C 19.15625 -25.078125 19.050781 -25.578125 18.90625 -26.234375 C 18.769531 -26.898438 18.554688 -27.519531 18.265625 -28.09375 C 17.984375 -28.664062 17.582031 -28.953125 17.0625 -28.953125 C 16.144531 -28.953125 15.28125 -28.492188 14.46875 -27.578125 C 13.664062 -26.660156 12.992188 -25.625 12.453125 -24.46875 C 11.910156 -23.320312 11.460938 -22.40625 11.109375 -21.71875 C 10.253906 -19.757812 9.46875 -17.757812 8.75 -15.71875 C 8.03125 -13.6875 7.5 -11.609375 7.15625 -9.484375 C 7.207031 -9.765625 7.421875 -10.507812 7.796875 -11.71875 C 8.171875 -12.925781 8.644531 -14.347656 9.21875 -15.984375 C 9.789062 -17.617188 10.378906 -19.226562 10.984375 -20.8125 C 11.585938 -22.394531 12.160156 -23.703125 12.703125 -24.734375 C 13.253906 -25.765625 13.671875 -26.28125 13.953125 -26.28125 C 13.722656 -26.226562 13.378906 -25.738281 12.921875 -24.8125 C 12.460938 -23.894531 11.957031 -22.742188 11.40625 -21.359375 C 10.863281 -19.984375 10.332031 -18.59375 9.8125 -17.1875 C 9.300781 -15.78125 8.875 -14.546875 8.53125 -13.484375 C 8.1875 -12.421875 7.984375 -11.773438 7.921875 -11.546875 C 7.867188 -11.316406 7.726562 -10.769531 7.5 -9.90625 C 7.269531 -9.039062 7.140625 -8.207031 7.109375 -7.40625 C 7.078125 -6.601562 7.265625 -6.117188 7.671875 -5.953125 C 7.953125 -5.890625 8.335938 -6.054688 8.828125 -6.453125 C 9.316406 -6.859375 9.773438 -7.332031 10.203125 -7.875 C 10.640625 -8.425781 10.914062 -8.789062 11.03125 -8.96875 C 12.695312 -10.976562 14.25 -13.046875 15.6875 -15.171875 L 17.921875 -18.359375 C 18.097656 -18.640625 18.285156 -18.9375 18.484375 -19.25 C 18.679688 -19.570312 18.894531 -19.878906 19.125 -20.171875 Z M 21.109375 -15.9375 L 21.890625 -18.015625 L 21.453125 -17.40625 C 21.398438 -17.289062 21.328125 -17.015625 21.234375 -16.578125 C 21.148438 -16.148438 21.109375 -15.9375 21.109375 -15.9375 Z M 19.8125 -21.28125 C 20.050781 -21.507812 20.050781 -21.796875 19.8125 -22.140625 Z M 19.8125 -21.28125 "/></g></g></g><g fill="#000000" fill-opacity="1"><g transform="translate(269.615754, 103.313644)"><g/></g></g><g fill="#000000" fill-opacity="1"><g transform="translate(293.743488, 103.313644)"><g><path d="M 66.609375 8.359375 C 66.609375 8.410156 66.59375 8.4375 66.5625 8.4375 C 66.539062 8.4375 66.53125 8.4375 66.53125 8.4375 C 66.53125 8.5 66.515625 8.53125 66.484375 8.53125 C 66.453125 8.53125 66.4375 8.53125 66.4375 8.53125 C 66.4375 8.582031 66.410156 8.609375 66.359375 8.609375 C 66.296875 8.671875 66.25 8.703125 66.21875 8.703125 C 66.195312 8.703125 66.1875 8.703125 66.1875 8.703125 C 66.125 8.765625 66.078125 8.796875 66.046875 8.796875 C 66.015625 8.796875 66 8.796875 66 8.796875 C 65.882812 8.796875 65.769531 8.820312 65.65625 8.875 C 65.425781 8.875 65.253906 8.90625 65.140625 8.96875 C 64.910156 8.96875 64.707031 8.976562 64.53125 9 C 64.363281 9.03125 64.195312 9.046875 64.03125 9.046875 C 63.625 9.109375 63.234375 9.140625 62.859375 9.140625 C 62.484375 9.140625 62.125 9.140625 61.78125 9.140625 C 61.320312 9.140625 60.875 9.148438 60.4375 9.171875 C 60.007812 9.203125 59.597656 9.21875 59.203125 9.21875 C 58.796875 9.164062 58.40625 9.140625 58.03125 9.140625 C 57.664062 9.140625 57.25 9.140625 56.78125 9.140625 C 56.664062 9.140625 56.578125 9.125 56.515625 9.09375 C 56.460938 9.0625 56.4375 9.046875 56.4375 9.046875 L 55.671875 9.046875 C 55.671875 9.335938 55.238281 9.484375 54.375 9.484375 L 49.375 9.65625 C 48.738281 9.65625 48.117188 9.640625 47.515625 9.609375 C 46.921875 9.578125 46.273438 9.5625 45.578125 9.5625 C 45.003906 9.625 44.328125 9.664062 43.546875 9.6875 C 42.773438 9.71875 42.132812 9.734375 41.625 9.734375 C 41.28125 9.679688 40.921875 9.664062 40.546875 9.6875 C 40.171875 9.71875 39.8125 9.734375 39.46875 9.734375 C 39.351562 9.734375 39.207031 9.71875 39.03125 9.6875 C 38.863281 9.664062 38.691406 9.65625 38.515625 9.65625 C 38.117188 9.65625 37.734375 9.664062 37.359375 9.6875 C 36.984375 9.71875 36.566406 9.734375 36.109375 9.734375 C 36.109375 9.796875 35.847656 9.882812 35.328125 10 C 34.753906 10.050781 34.164062 10.078125 33.5625 10.078125 C 32.957031 10.078125 32.34375 10.078125 31.71875 10.078125 L 29.8125 10.078125 C 29.582031 10.023438 29.351562 9.984375 29.125 9.953125 C 28.894531 9.921875 28.632812 9.90625 28.34375 9.90625 C 27.65625 9.96875 26.992188 10.007812 26.359375 10.03125 C 25.734375 10.0625 25.078125 10.078125 24.390625 10.078125 L 17.671875 10.078125 C 17.785156 10.140625 17.410156 10.210938 16.546875 10.296875 C 15.679688 10.378906 15.109375 10.421875 14.828125 10.421875 L 8.359375 10.421875 C 7.785156 10.421875 7.210938 10.421875 6.640625 10.421875 C 6.066406 10.421875 5.460938 10.394531 4.828125 10.34375 C 3.617188 10.34375 2.441406 10.253906 1.296875 10.078125 C 1.066406 10.023438 0.804688 9.96875 0.515625 9.90625 C 0.234375 9.851562 -0.0507812 9.796875 -0.34375 9.734375 C -0.976562 9.617188 -1.550781 9.445312 -2.0625 9.21875 C -2.238281 9.164062 -2.5 9.023438 -2.84375 8.796875 C -3.1875 8.554688 -3.414062 8.351562 -3.53125 8.1875 C -3.53125 8.125 -3.546875 8.078125 -3.578125 8.046875 C -3.609375 8.023438 -3.625 7.984375 -3.625 7.921875 L -3.625 7.671875 L -3.359375 7.234375 C -3.242188 7.117188 -3.113281 7.0625 -2.96875 7.0625 C -2.820312 7.0625 -2.691406 7.035156 -2.578125 6.984375 C -2.410156 6.984375 -2.328125 7.007812 -2.328125 7.0625 C -2.210938 7.007812 -1.984375 6.984375 -1.640625 6.984375 L -1.546875 6.984375 C -1.203125 6.984375 -0.898438 6.984375 -0.640625 6.984375 C -0.390625 6.984375 -0.144531 6.953125 0.09375 6.890625 C 0.320312 6.890625 0.550781 6.875 0.78125 6.84375 C 1.007812 6.820312 1.238281 6.78125 1.46875 6.71875 L 4.3125 6.71875 C 5.289062 6.71875 6.296875 6.703125 7.328125 6.671875 C 8.359375 6.648438 9.390625 6.640625 10.421875 6.640625 C 11.398438 6.578125 12.390625 6.53125 13.390625 6.5 C 14.398438 6.476562 15.394531 6.492188 16.375 6.546875 C 16.832031 6.546875 17.289062 6.5625 17.75 6.59375 C 18.207031 6.625 18.664062 6.640625 19.125 6.640625 C 19.46875 6.640625 19.796875 6.648438 20.109375 6.671875 C 20.429688 6.703125 20.738281 6.71875 21.03125 6.71875 L 22.40625 6.71875 C 23.09375 6.664062 23.78125 6.609375 24.46875 6.546875 C 25.15625 6.492188 25.875 6.46875 26.625 6.46875 L 31.359375 6.46875 L 36.015625 6.640625 C 36.703125 6.640625 37.390625 6.640625 38.078125 6.640625 C 38.773438 6.640625 39.46875 6.664062 40.15625 6.71875 C 40.445312 6.71875 40.734375 6.734375 41.015625 6.765625 C 41.304688 6.796875 41.566406 6.8125 41.796875 6.8125 C 45.585938 6.863281 49.347656 6.972656 53.078125 7.140625 C 56.816406 7.316406 60.378906 7.550781 63.765625 7.84375 C 64.171875 7.84375 64.457031 7.867188 64.625 7.921875 L 65.234375 7.921875 C 65.234375 7.804688 65.289062 7.75 65.40625 7.75 C 65.457031 7.695312 65.570312 7.671875 65.75 7.671875 L 66.09375 7.671875 C 66.15625 7.671875 66.210938 7.695312 66.265625 7.75 L 66.4375 7.75 C 66.4375 7.8125 66.46875 7.84375 66.53125 7.84375 C 66.53125 7.894531 66.539062 7.921875 66.5625 7.921875 C 66.59375 7.921875 66.609375 7.921875 66.609375 7.921875 Z M 66.609375 8.359375 "/></g></g></g></svg>